<svg id="Layer_1" data-name="Layer 1" xmlns="http://www.w3.org/2000/svg" viewBox="0 0 74.12 102.72"><defs><style>.cls-1{fill:#fff;}.cls-2{fill:#73a4e8;}.cls-3{fill:#1c5080;}.cls-4{fill:#fdc030;}</style></defs><rect class="cls-1" y="8.96" width="74.12" height="93.76"/><circle class="cls-2" cx="37.44" cy="12.18" r="12.18"/><path class="cls-1" d="M34.42,14l1.1-1.11a2.1,2.1,0,0,0,1.52.72c.5,0,.81-.25.81-.64v0c0-.4-.37-.65-1-.65h-.74l-.26-.91,1.46-1.32H34.85V8.67h4.59V9.93l-1.51,1.29A1.8,1.8,0,0,1,39.57,13v0a2.19,2.19,0,0,1-2.45,2.11A3.46,3.46,0,0,1,34.42,14Z"/><path d="M23.49,74.24a2.55,2.55,0,0,1-.39.24,1.73,1.73,0,0,1-.47.15,2.34,2.34,0,0,1-.56.06A2.3,2.3,0,0,1,20.48,74a2.24,2.24,0,0,1-.46-.7,2.28,2.28,0,0,1-.16-.87h0a2.22,2.22,0,0,1,.62-1.58,2.34,2.34,0,0,1,.71-.48,2.27,2.27,0,0,1,.91-.18,3.15,3.15,0,0,1,.56,0,3,3,0,0,1,.45.14,2.82,2.82,0,0,1,.38.21,2.69,2.69,0,0,1,.32.27l-.61.7a2,2,0,0,0-.51-.36,1.28,1.28,0,0,0-.59-.13,1.18,1.18,0,0,0-.9.39,1.45,1.45,0,0,0-.26.43,1.5,1.5,0,0,0-.09.52v0a1.54,1.54,0,0,0,.09.52,1.34,1.34,0,0,0,.26.43,1.14,1.14,0,0,0,.39.29,1.19,1.19,0,0,0,.51.11,1.32,1.32,0,0,0,.62-.13,3.27,3.27,0,0,0,.51-.37l.61.61Z"/><path d="M27.77,73.63a1.72,1.72,0,0,1-.37.55,1.7,1.7,0,0,1-.57.37,1.87,1.87,0,0,1-1.42,0,1.68,1.68,0,0,1-.57-.36,1.85,1.85,0,0,1-.37-.54,1.67,1.67,0,0,1-.13-.67h0a1.67,1.67,0,0,1,.13-.67,1.75,1.75,0,0,1,.38-.55,2,2,0,0,1,.56-.37,2,2,0,0,1,1.43,0,1.8,1.8,0,0,1,.56.36,1.72,1.72,0,0,1,.37.55,1.63,1.63,0,0,1,.14.66v0A1.63,1.63,0,0,1,27.77,73.63ZM27,73a.81.81,0,0,0-.07-.35.92.92,0,0,0-.17-.29.9.9,0,0,0-.28-.2.85.85,0,0,0-.35-.08,1,1,0,0,0-.36.07.79.79,0,0,0-.27.2.77.77,0,0,0-.17.29.93.93,0,0,0-.06.34v0a.93.93,0,0,0,.06.34.79.79,0,0,0,.18.29.73.73,0,0,0,.27.2.86.86,0,0,0,.36.08,1,1,0,0,0,.36-.07.86.86,0,0,0,.27-.2.88.88,0,0,0,.17-.28A1,1,0,0,0,27,73Z"/><path d="M30.68,74.61V72.77a.75.75,0,0,0-.15-.5.54.54,0,0,0-.42-.17.58.58,0,0,0-.43.17.75.75,0,0,0-.16.5v1.84h-.93v-3.3h.93v.47l.18-.2a.87.87,0,0,1,.21-.17,1.23,1.23,0,0,1,.26-.12,1.25,1.25,0,0,1,1.15.28,1.28,1.28,0,0,1,.29.9v2.14Z"/><path d="M34,74.61a1.33,1.33,0,0,1-.42.06,1.6,1.6,0,0,1-.39,0,.62.62,0,0,1-.3-.16.87.87,0,0,1-.2-.31,1.5,1.5,0,0,1-.07-.47V72.11h-.39v-.8h.39v-.85h.94v.85h.77v.8h-.77v1.41c0,.21.1.32.3.32a.93.93,0,0,0,.46-.12v.76A1.79,1.79,0,0,1,34,74.61Z"/><path d="M36.92,74.61v-.36a1.27,1.27,0,0,1-.41.31,1.32,1.32,0,0,1-.59.11,1.61,1.61,0,0,1-.44-.06.91.91,0,0,1-.36-.2.92.92,0,0,1-.24-.31,1,1,0,0,1-.09-.44h0a1,1,0,0,1,.1-.47.76.76,0,0,1,.27-.32,1.17,1.17,0,0,1,.42-.2,2.23,2.23,0,0,1,.54-.06,2.85,2.85,0,0,1,.44,0l.37.1v0a.55.55,0,0,0-.18-.45.76.76,0,0,0-.53-.16,2.28,2.28,0,0,0-.48.05,2.61,2.61,0,0,0-.43.13l-.24-.71a2.73,2.73,0,0,1,.57-.19,2.9,2.9,0,0,1,.71-.08,1.3,1.3,0,0,1,1.48,1.43v1.91Zm0-1.33a1,1,0,0,0-.28-.09,1.58,1.58,0,0,0-.32,0,.88.88,0,0,0-.47.11.39.39,0,0,0-.18.34v0a.34.34,0,0,0,.15.29.57.57,0,0,0,.36.11.89.89,0,0,0,.54-.16.53.53,0,0,0,.2-.42Z"/><path d="M41,74.52a1.67,1.67,0,0,1-.8.17,1.72,1.72,0,0,1-.68-.14,1.53,1.53,0,0,1-.55-.37,1.7,1.7,0,0,1-.36-.54,1.85,1.85,0,0,1-.13-.66h0A1.74,1.74,0,0,1,39,71.75a1.66,1.66,0,0,1,.55-.37,1.73,1.73,0,0,1,.69-.13,1.91,1.91,0,0,1,.78.14,1.68,1.68,0,0,1,.54.41l-.57.62a2,2,0,0,0-.33-.27.87.87,0,0,0-.42-.1.79.79,0,0,0-.32.07.86.86,0,0,0-.26.2.75.75,0,0,0-.16.29.93.93,0,0,0-.06.34v0a1,1,0,0,0,.06.35.66.66,0,0,0,.17.29.73.73,0,0,0,.26.2,1,1,0,0,0,.35.07.8.8,0,0,0,.41-.1,1.84,1.84,0,0,0,.34-.25l.55.55A2.13,2.13,0,0,1,41,74.52Z"/><path d="M43.68,74.61a1.31,1.31,0,0,1-.41.06,1.48,1.48,0,0,1-.39,0,.71.71,0,0,1-.31-.16.74.74,0,0,1-.19-.31,1.26,1.26,0,0,1-.07-.47V72.11h-.4v-.8h.4v-.85h.93v.85H44v.8h-.78v1.41a.28.28,0,0,0,.31.32,1,1,0,0,0,.46-.12v.76A1.62,1.62,0,0,1,43.68,74.61Z"/><path d="M48.49,74.61v-.36a1.21,1.21,0,0,1-1,.42,1.63,1.63,0,0,1-.45-.06,1.07,1.07,0,0,1-.36-.2.92.92,0,0,1-.24-.31,1,1,0,0,1-.09-.44h0a1,1,0,0,1,.1-.47.94.94,0,0,1,.27-.32,1.17,1.17,0,0,1,.42-.2,2.35,2.35,0,0,1,.54-.06,2.76,2.76,0,0,1,.44,0l.37.1v0a.55.55,0,0,0-.18-.45.75.75,0,0,0-.53-.16,2.28,2.28,0,0,0-.48.05,2.93,2.93,0,0,0-.43.13l-.24-.71a2.93,2.93,0,0,1,.57-.19,3,3,0,0,1,.72-.08A1.29,1.29,0,0,1,49.4,72.7v1.91Zm0-1.33a1.07,1.07,0,0,0-.27-.09,1.69,1.69,0,0,0-.33,0,.88.88,0,0,0-.47.11.38.38,0,0,0-.17.34v0a.33.33,0,0,0,.14.29.6.6,0,0,0,.37.11.86.86,0,0,0,.53-.16.5.5,0,0,0,.2-.42Z"/><path d="M52.53,74.09a.82.82,0,0,1-.26.32,1.12,1.12,0,0,1-.41.2,1.93,1.93,0,0,1-.49.06,2.27,2.27,0,0,1-.72-.12,2.09,2.09,0,0,1-.7-.38l.4-.61a2,2,0,0,0,.54.29,1.35,1.35,0,0,0,.5.1.47.47,0,0,0,.3-.07.2.2,0,0,0,.09-.17v0a.17.17,0,0,0-.05-.13l-.15-.09-.22-.08-.26-.08-.35-.12a1.57,1.57,0,0,1-.31-.18.92.92,0,0,1-.24-.28.86.86,0,0,1-.09-.41h0a1.06,1.06,0,0,1,.1-.45.93.93,0,0,1,.26-.33,1.07,1.07,0,0,1,.38-.2,1.45,1.45,0,0,1,.47-.07,2.08,2.08,0,0,1,.64.1,2.53,2.53,0,0,1,.6.28l-.36.65a3.44,3.44,0,0,0-.48-.23A1.46,1.46,0,0,0,51.3,72a.36.36,0,0,0-.25.07.18.18,0,0,0-.09.16h0a.17.17,0,0,0,0,.12.56.56,0,0,0,.15.1l.22.09.25.09a2.48,2.48,0,0,1,.35.13,1.13,1.13,0,0,1,.32.19.78.78,0,0,1,.24.27.75.75,0,0,1,.09.39h0A1.06,1.06,0,0,1,52.53,74.09Z"/><path d="M18.55,81.75V79.91a.75.75,0,0,0-.14-.5.5.5,0,0,0-.4-.17.54.54,0,0,0-.42.17.75.75,0,0,0-.15.5v1.84H16.5V79.91a.75.75,0,0,0-.14-.5.51.51,0,0,0-.41-.17.53.53,0,0,0-.41.17.75.75,0,0,0-.15.5v1.84h-.94v-3.3h.94v.47a1.63,1.63,0,0,1,.17-.2,1.84,1.84,0,0,1,.22-.17.89.89,0,0,1,.26-.12,1,1,0,0,1,.32,0,1.08,1.08,0,0,1,.56.13,1,1,0,0,1,.37.4,1.6,1.6,0,0,1,.48-.4,1.33,1.33,0,0,1,.61-.13,1.07,1.07,0,0,1,.82.31,1.26,1.26,0,0,1,.29.9v2.15Z"/><path d="M22.24,81.75V81.4a1.4,1.4,0,0,1-.41.3,1.32,1.32,0,0,1-.59.11,1.61,1.61,0,0,1-.44-.06,1,1,0,0,1-.36-.19,1.08,1.08,0,0,1-.24-.32,1,1,0,0,1-.09-.44h0a1,1,0,0,1,.1-.47.76.76,0,0,1,.27-.32,1.36,1.36,0,0,1,.42-.2,2.23,2.23,0,0,1,.54-.06,1.94,1.94,0,0,1,.44,0,2.22,2.22,0,0,1,.37.09v-.05a.55.55,0,0,0-.18-.45.82.82,0,0,0-.53-.16,2.28,2.28,0,0,0-.48.05,4.14,4.14,0,0,0-.43.13l-.24-.71a3.47,3.47,0,0,1,.57-.19,2.9,2.9,0,0,1,.71-.08,1.29,1.29,0,0,1,1.48,1.43v1.91Zm0-1.33L22,80.33a1.58,1.58,0,0,0-.32,0,.8.8,0,0,0-.47.12.37.37,0,0,0-.18.33v0a.34.34,0,0,0,.15.29.58.58,0,0,0,.37.11.86.86,0,0,0,.53-.16.53.53,0,0,0,.2-.42Z"/><path d="M26,81.75V79.91a.8.8,0,0,0-.14-.5.54.54,0,0,0-.42-.17.56.56,0,0,0-.43.17.7.7,0,0,0-.16.5v1.84H24v-3.3h.94v.47a1.12,1.12,0,0,1,.18-.2,1.2,1.2,0,0,1,.21-.17,1,1,0,0,1,.58-.16,1.08,1.08,0,0,1,.83.32,1.33,1.33,0,0,1,.29.9v2.14Z"/><path d="M29.67,81.83a2.48,2.48,0,0,1-.2.43,1.4,1.4,0,0,1-.23.29.83.83,0,0,1-.29.16,1.32,1.32,0,0,1-.37.05,1.53,1.53,0,0,1-.45-.06,1.63,1.63,0,0,1-.38-.17l.31-.68a.88.88,0,0,0,.2.09.54.54,0,0,0,.2,0,.37.37,0,0,0,.2,0,.48.48,0,0,0,.13-.17L27.5,78.45h1l.75,2.25L30,78.45h1Z"/><path d="M34.87,81.76a1.7,1.7,0,0,1-.41,0,1.62,1.62,0,0,1-.4,0,.73.73,0,0,1-.3-.16.87.87,0,0,1-.2-.31,1.5,1.5,0,0,1-.07-.47V79.25H33.1v-.8h.39v-.84h.94v.84h.78v.8h-.78v1.41c0,.22.1.32.3.32a1,1,0,0,0,.46-.11v.75A1.34,1.34,0,0,1,34.87,81.76Z"/><path d="M38,81.75v-.47a1.63,1.63,0,0,1-.17.2,1.18,1.18,0,0,1-.22.17.89.89,0,0,1-.26.12,1.23,1.23,0,0,1-1.14-.28,1.29,1.29,0,0,1-.3-.9V78.45h.94v1.84a.73.73,0,0,0,.15.5.6.6,0,0,0,.84,0,.68.68,0,0,0,.16-.5V78.45h.94v3.3Z"/><path d="M41.26,81.76a1.58,1.58,0,0,1-.41,0,1.6,1.6,0,0,1-.39,0,.62.62,0,0,1-.3-.16.76.76,0,0,1-.2-.31,1.26,1.26,0,0,1-.07-.47V79.25H39.5v-.8h.39v-.84h.94v.84h.77v.8h-.77v1.41c0,.22.1.32.3.32a1,1,0,0,0,.46-.11v.75A1.64,1.64,0,0,1,41.26,81.76Z"/><path d="M45.57,80.78a1.68,1.68,0,0,1-.37.54,1.7,1.7,0,0,1-.57.37,1.89,1.89,0,0,1-.72.14,1.78,1.78,0,0,1-.7-.14,1.54,1.54,0,0,1-.57-.36,1.58,1.58,0,0,1-.37-.54,1.67,1.67,0,0,1-.14-.67h0a1.67,1.67,0,0,1,.14-.67,1.6,1.6,0,0,1,.38-.55,1.82,1.82,0,0,1,.56-.37,2,2,0,0,1,1.43,0,1.92,1.92,0,0,1,.56.36,1.72,1.72,0,0,1,.37.55,1.64,1.64,0,0,1,.14.67h0A1.67,1.67,0,0,1,45.57,80.78Zm-.79-.67a1,1,0,0,0-.06-.35.79.79,0,0,0-.18-.29.9.9,0,0,0-.27-.2,1,1,0,0,0-.72,0,.7.7,0,0,0-.26.19.77.77,0,0,0-.17.29,1,1,0,0,0-.06.35h0a1,1,0,0,0,.06.35,1,1,0,0,0,.18.29,1.05,1.05,0,0,0,.27.2.85.85,0,0,0,1-.2.88.88,0,0,0,.17-.28,1.34,1.34,0,0,0,.05-.35Z"/><path d="M48.33,79.37a1,1,0,0,0-.74.28,1.24,1.24,0,0,0-.27.88v1.22h-.93v-3.3h.93v.67a1.52,1.52,0,0,1,.39-.55,1,1,0,0,1,.67-.18v1Z"/><path d="M51.29,81.23a.86.86,0,0,1-.27.33,1.24,1.24,0,0,1-.4.19,2,2,0,0,1-.5.06,2.36,2.36,0,0,1-.72-.12,2.49,2.49,0,0,1-.7-.37l.4-.62a2.43,2.43,0,0,0,.54.3,1.61,1.61,0,0,0,.51.09.55.55,0,0,0,.29-.06.21.21,0,0,0,.1-.18v0a.16.16,0,0,0-.06-.12.36.36,0,0,0-.15-.1l-.22-.08-.25-.08a2.06,2.06,0,0,1-.35-.12,1.11,1.11,0,0,1-.32-.18,1,1,0,0,1-.23-.28.86.86,0,0,1-.09-.41h0A.93.93,0,0,1,49,79a1,1,0,0,1,.64-.53,1.41,1.41,0,0,1,.47-.07,2.08,2.08,0,0,1,.64.1,2.46,2.46,0,0,1,.59.28l-.36.65a3.49,3.49,0,0,0-.48-.23,1.34,1.34,0,0,0-.41-.08.38.38,0,0,0-.26.07.18.18,0,0,0-.09.16h0a.14.14,0,0,0,.06.12.56.56,0,0,0,.15.1l.21.09.26.09a3,3,0,0,1,.35.13,1.29,1.29,0,0,1,.32.19.87.87,0,0,1,.23.27.75.75,0,0,1,.09.39h0A1.21,1.21,0,0,1,51.29,81.23Z"/><path d="M55.84,81.75V81.4a1.55,1.55,0,0,1-.41.3,1.32,1.32,0,0,1-.59.11,1.61,1.61,0,0,1-.44-.06,1,1,0,0,1-.36-.19,1.08,1.08,0,0,1-.24-.32,1,1,0,0,1-.09-.44h0a1,1,0,0,1,.1-.47.76.76,0,0,1,.27-.32,1.36,1.36,0,0,1,.42-.2,2.23,2.23,0,0,1,.54-.06,1.94,1.94,0,0,1,.44,0,2.49,2.49,0,0,1,.37.09v-.05a.55.55,0,0,0-.18-.45.82.82,0,0,0-.53-.16,2.28,2.28,0,0,0-.48.05,4.14,4.14,0,0,0-.43.13L54,78.68a3.47,3.47,0,0,1,.57-.19,2.9,2.9,0,0,1,.71-.08,1.3,1.3,0,0,1,1.48,1.43v1.91Zm0-1.33-.28-.09a1.58,1.58,0,0,0-.32,0,.8.8,0,0,0-.47.12.37.37,0,0,0-.18.33v0a.34.34,0,0,0,.15.29.58.58,0,0,0,.37.11.88.88,0,0,0,.53-.16.53.53,0,0,0,.2-.42Z"/><path d="M59.88,81.23a.86.86,0,0,1-.27.33,1.24,1.24,0,0,1-.4.19,2,2,0,0,1-.5.06,2.36,2.36,0,0,1-.72-.12,2.49,2.49,0,0,1-.7-.37l.4-.62a3,3,0,0,0,.54.3,1.61,1.61,0,0,0,.51.09A.61.61,0,0,0,59,81a.23.23,0,0,0,.09-.18v0a.18.18,0,0,0-.05-.12.49.49,0,0,0-.16-.1l-.21-.08-.26-.08a2.42,2.42,0,0,1-.35-.12,1.26,1.26,0,0,1-.32-.18,1,1,0,0,1-.23-.28.86.86,0,0,1-.09-.41h0a1,1,0,0,1,.36-.78.92.92,0,0,1,.38-.2,1.41,1.41,0,0,1,.47-.07,2.08,2.08,0,0,1,.64.1,2.46,2.46,0,0,1,.59.28l-.36.65a3.49,3.49,0,0,0-.48-.23,1.34,1.34,0,0,0-.41-.08.4.4,0,0,0-.26.07.17.17,0,0,0-.08.16h0a.13.13,0,0,0,0,.12.56.56,0,0,0,.15.1l.21.09.26.09a3,3,0,0,1,.35.13,1.29,1.29,0,0,1,.32.19.87.87,0,0,1,.23.27.75.75,0,0,1,.1.39h0A1.21,1.21,0,0,1,59.88,81.23Z"/><path d="M27.11,89a2.36,2.36,0,0,1-.2.42,1.18,1.18,0,0,1-.23.29.75.75,0,0,1-.29.16,1.32,1.32,0,0,1-.37.05,1.53,1.53,0,0,1-.45-.06,1.84,1.84,0,0,1-.38-.17l.32-.68a.93.93,0,0,0,.2.1l.2,0a.36.36,0,0,0,.19,0,.4.4,0,0,0,.13-.17l-1.29-3.32h1l.75,2.25.72-2.25h1Z"/><path d="M32.21,87.92a1.58,1.58,0,0,1-.37.54,1.7,1.7,0,0,1-.57.37,1.89,1.89,0,0,1-.72.14,2,2,0,0,1-.7-.13,1.7,1.7,0,0,1-.57-.37,1.58,1.58,0,0,1-.37-.54,1.67,1.67,0,0,1-.14-.67h0a1.67,1.67,0,0,1,.14-.67,1.58,1.58,0,0,1,.37-.54,1.7,1.7,0,0,1,.57-.37,1.89,1.89,0,0,1,.72-.14,1.78,1.78,0,0,1,.7.13,1.7,1.7,0,0,1,.57.37,1.58,1.58,0,0,1,.37.54,1.67,1.67,0,0,1,.14.67h0A1.67,1.67,0,0,1,32.21,87.92Zm-.79-.67a1,1,0,0,0-.06-.35.88.88,0,0,0-.18-.29,1.05,1.05,0,0,0-.27-.2,1,1,0,0,0-.72,0,.83.83,0,0,0-.26.19.77.77,0,0,0-.17.29,1,1,0,0,0-.06.35h0a1,1,0,0,0,.06.35.88.88,0,0,0,.18.29,1.05,1.05,0,0,0,.27.2.83.83,0,0,0,.36.07.86.86,0,0,0,.36-.07,1,1,0,0,0,.27-.19.83.83,0,0,0,.16-.29,1,1,0,0,0,.06-.35Z"/><path d="M35.09,88.89v-.47a1.12,1.12,0,0,1-.18.2.91.91,0,0,1-.21.18,1.56,1.56,0,0,1-.26.11,1,1,0,0,1-.32,0,1.06,1.06,0,0,1-.83-.33,1.33,1.33,0,0,1-.29-.9V85.59h.94v1.84a.73.73,0,0,0,.15.5.51.51,0,0,0,.41.17.55.55,0,0,0,.43-.17.68.68,0,0,0,.16-.5V85.59H36v3.3Z"/><path d="M38.76,88.89V84.4h.93v4.49Z"/><path d="M40.59,85.23V84.4h1v.83Zm0,3.66v-3.3h.93v3.3Z"/><path d="M44.56,88.89l-.86-1.34-.33.34v1h-.93V84.4h.93v2.39l1.1-1.2h1.12l-1.26,1.3,1.3,2Z"/><path d="M49.16,87.45a.53.53,0,0,1,0,.12h-2.3a.83.83,0,0,0,.28.48.86.86,0,0,0,.53.17,1.08,1.08,0,0,0,.42-.08,1.61,1.61,0,0,0,.38-.26l.54.47a1.68,1.68,0,0,1-.57.46,1.87,1.87,0,0,1-.78.16,1.92,1.92,0,0,1-.69-.12,1.69,1.69,0,0,1-.55-.36,1.77,1.77,0,0,1-.36-.53,1.94,1.94,0,0,1-.13-.7h0a1.89,1.89,0,0,1,.12-.67,1.66,1.66,0,0,1,.34-.54,1.55,1.55,0,0,1,.51-.37,1.6,1.6,0,0,1,.67-.14,1.58,1.58,0,0,1,.71.15,1.57,1.57,0,0,1,.8,1,2.47,2.47,0,0,1,.1.67v0S49.16,87.42,49.16,87.45Zm-1.13-1a.62.62,0,0,0-.47-.2.66.66,0,0,0-.48.19,1,1,0,0,0-.24.51h1.41A.89.89,0,0,0,48,86.48Z"/><polygon class="cls-3" points="38.73 47.11 38.73 44.58 37.66 44.58 37.66 47.11 18.33 47.11 18.33 48.17 58.06 48.17 58.06 47.11 38.73 47.11"/><path class="cls-3" d="M38.56,31.8a1.88,1.88,0,1,1-1.87,1.88,1.88,1.88,0,0,1,1.87-1.88m0-1.06a2.94,2.94,0,1,0,2.95,2.94,2.94,2.94,0,0,0-2.95-2.94Z"/><path class="cls-3" d="M44.45,43.79H32.71V42a4,4,0,0,1,4-4h3.8a4,4,0,0,1,4,4ZM33.78,42.72h9.6V42a2.9,2.9,0,0,0-2.9-2.9h-3.8a2.9,2.9,0,0,0-2.9,2.9Z"/><path class="cls-2" d="M33.78,42.72h9.6V42a2.9,2.9,0,0,0-2.9-2.9h-3.8a2.9,2.9,0,0,0-2.9,2.9Z"/><path class="cls-3" d="M18.67,51.57a1.26,1.26,0,1,1-1.26,1.26,1.27,1.27,0,0,1,1.26-1.26m0-1a2.24,2.24,0,1,0,2.24,2.24,2.24,2.24,0,0,0-2.24-2.24Z"/><path class="cls-3" d="M23.15,60.51H14.23V59.17a3,3,0,0,1,3-3h2.89a3,3,0,0,1,3,3ZM15,59.7h7.3v-.53A2.21,2.21,0,0,0,20.13,57H17.24A2.2,2.2,0,0,0,15,59.17Z"/><path class="cls-2" d="M15,59.7h7.3v-.53A2.21,2.21,0,0,0,20.13,57H17.24A2.2,2.2,0,0,0,15,59.17Z"/><path class="cls-3" d="M32.21,51.57A1.26,1.26,0,1,1,31,52.83a1.27,1.27,0,0,1,1.26-1.26m0-1a2.24,2.24,0,1,0,2.24,2.24,2.24,2.24,0,0,0-2.24-2.24Z"/><path class="cls-3" d="M36.69,60.51H27.77V59.17a3,3,0,0,1,3-3h2.89a3,3,0,0,1,3,3Zm-8.11-.81h7.3v-.53A2.21,2.21,0,0,0,33.67,57H30.78a2.21,2.21,0,0,0-2.2,2.21Z"/><path class="cls-2" d="M28.58,59.7h7.3v-.53A2.21,2.21,0,0,0,33.67,57H30.78a2.21,2.21,0,0,0-2.2,2.21Z"/><path class="cls-3" d="M44.33,51.57a1.26,1.26,0,1,1-1.26,1.26,1.27,1.27,0,0,1,1.26-1.26m0-1a2.24,2.24,0,1,0,2.24,2.24,2.24,2.24,0,0,0-2.24-2.24Z"/><path class="cls-3" d="M48.8,60.51H39.89V59.17a3,3,0,0,1,3-3h2.89a3,3,0,0,1,3,3Zm-8.1-.81H48v-.53A2.2,2.2,0,0,0,45.79,57H42.9a2.2,2.2,0,0,0-2.2,2.21Z"/><path class="cls-2" d="M40.7,59.7H48v-.53A2.2,2.2,0,0,0,45.79,57H42.9a2.2,2.2,0,0,0-2.2,2.21Z"/><path class="cls-3" d="M57.52,51.57a1.26,1.26,0,0,1,0,2.52,1.26,1.26,0,1,1,0-2.52m0-1a2.24,2.24,0,1,0,2.24,2.24,2.24,2.24,0,0,0-2.24-2.24Z"/><path class="cls-3" d="M62,60.51H53.07V59.17a3,3,0,0,1,3-3H59a3,3,0,0,1,3,3Zm-8.11-.81h7.3v-.53A2.21,2.21,0,0,0,59,57h-2.9a2.21,2.21,0,0,0-2.2,2.21Z"/><path class="cls-2" d="M53.88,59.7h7.3v-.53A2.21,2.21,0,0,0,59,57h-2.9a2.21,2.21,0,0,0-2.2,2.21Z"/><path class="cls-4" d="M32.21,51.57A1.26,1.26,0,1,1,31,52.83a1.27,1.27,0,0,1,1.26-1.26"/><path class="cls-4" d="M57.52,51.57a1.26,1.26,0,0,1,0,2.52,1.26,1.26,0,1,1,0-2.52"/></svg>