<svg id="Layer_1" data-name="Layer 1" xmlns="http://www.w3.org/2000/svg" viewBox="0 0 24 24"><defs><style>.cls-1{fill:#B7C3E2;}</style></defs><path class="cls-1" d="M23.65,19.92l-3.2,2.91a4.52,4.52,0,0,1-6.21-.14L1.31,9.76a4.52,4.52,0,0,1-.14-6.21L4.08.35a1.11,1.11,0,0,1,1.58,0L9.25,3.83a1.1,1.1,0,0,1,0,1.56L7.09,7.56a1.42,1.42,0,0,0,0,2l7.33,7.33a1.42,1.42,0,0,0,2,0l2.17-2.16a1.09,1.09,0,0,1,1.56,0l3.52,3.59A1.11,1.11,0,0,1,23.65,19.92Z"/><path class="cls-1" d="M19.17,11.19H17a4.41,4.41,0,0,0-4.4-4.4V4.59A6.61,6.61,0,0,1,19.17,11.19Z"/><path class="cls-1" d="M23.69,11.19h-2.2a8.93,8.93,0,0,0-8.92-8.92V.07A11.13,11.13,0,0,1,23.69,11.19Z"/></svg>