<svg id="Layer_1" data-name="Layer 1" xmlns="http://www.w3.org/2000/svg" viewBox="0 0 24 24"><defs><style>.cls-1{fill:#fff;}</style></defs><path class="cls-1" d="M12,22.06H2a1.93,1.93,0,0,1-2-2V4a1.93,1.93,0,0,1,2-2H21.94A1.93,1.93,0,0,1,24,4V20a1.93,1.93,0,0,1-2,2ZM.78,7.36c0,.08,0,.13,0,.19q0,6.26,0,12.52A1.16,1.16,0,0,0,2,21.29H22a1.16,1.16,0,0,0,1.22-1.24q0-6.24,0-12.48a1.65,1.65,0,0,0,0-.21Zm0-.8H23.23c0-.86,0-1.71,0-2.55a1.18,1.18,0,0,0-1.31-1.3H2A1.15,1.15,0,0,0,.78,3.79C.76,4.71.78,5.63.78,6.56Z"/><path class="cls-1" d="M12,14.32h-.75a.38.38,0,0,1-.41-.41,3.49,3.49,0,0,1,.94-2.63.84.84,0,0,0,.21-.42.37.37,0,0,0-.36-.41.38.38,0,0,0-.4.34c0,.13,0,.26,0,.39a.39.39,0,0,1-.42.43H9.31a.37.37,0,0,1-.4-.36,2.72,2.72,0,1,1,5.4-.07A3.15,3.15,0,0,1,13.46,13a1,1,0,0,0-.3.78c0,.41-.12.53-.53.53Zm-1.56-3.49a1.57,1.57,0,0,1,0-.23,1.16,1.16,0,0,1,2.28.05,1.29,1.29,0,0,1-.39,1.14,2.57,2.57,0,0,0-.75,1.74h.76a2.1,2.1,0,0,1,.55-1.1,3.09,3.09,0,0,0,.54-1A2,2,0,0,0,11.18,9,1.89,1.89,0,0,0,9.7,10.83Z"/><path class="cls-1" d="M3.88,18.18v-.74H20.13v.74Z"/><path class="cls-1" d="M18.57,19v.75H3.88V19Z"/><path class="cls-1" d="M12,17a1.16,1.16,0,0,1,0-2.32A1.16,1.16,0,1,1,12,17Zm.39-1.16a.39.39,0,0,0-.38-.39.39.39,0,1,0,0,.77A.37.37,0,0,0,12.38,15.87Z"/><path class="cls-1" d="M1.55,9.66c0-.4,0-.77,0-1.15a.35.35,0,0,1,.34-.37c.4,0,.79,0,1.19,0V8.9H2.33v.76Z"/><path class="cls-1" d="M22.43,9.67h-.75V8.91h-.76V8.14c.4,0,.8,0,1.2,0a.42.42,0,0,1,.3.26C22.45,8.82,22.43,9.25,22.43,9.67Z"/><path class="cls-1" d="M1.55,19h.77v.75h.76v.77c-.41,0-.82,0-1.23,0a.34.34,0,0,1-.3-.36Z"/><path class="cls-1" d="M21.67,19h.78c0,.41,0,.81,0,1.2a.35.35,0,0,1-.39.33H20.92v-.77h.75Z"/><path class="cls-1" d="M21.69,10.46h.74v.75h-.74Z"/><path class="cls-1" d="M19.37,19.73V19h.74v.75Z"/><path class="cls-1" d="M14.71,5.81H11.23A1.17,1.17,0,0,1,10.13,5a1.15,1.15,0,0,1,.34-1.27,1.12,1.12,0,0,1,.76-.28c2.32,0,4.64,0,7,0a1.16,1.16,0,1,1,0,2.32Zm0-.78h3.38a.56.56,0,0,0,.39-.13.49.49,0,0,0,.08-.39c-.05-.21-.24-.25-.44-.25H11.64a3.49,3.49,0,0,0-.46,0,.36.36,0,0,0-.34.38.37.37,0,0,0,.34.38h3.51Z"/><path class="cls-1" d="M22.14,6l-.06,0a.54.54,0,0,0-.63-.21,1.12,1.12,0,0,1-1.32-1,1.16,1.16,0,0,1,1.13-1.27,1.11,1.11,0,0,1,1.17,1.23c-.05.35,0,.6.3.78Zm-.46-1.37a.4.4,0,0,0-.38-.4.39.39,0,0,0-.39.38.38.38,0,0,0,.37.39A.39.39,0,0,0,21.68,4.66Z"/><path class="cls-1" d="M3.87,4.65A1.16,1.16,0,1,1,2.73,3.49,1.16,1.16,0,0,1,3.87,4.65Zm-.78,0a.39.39,0,0,0-.37-.4A.39.39,0,1,0,2.7,5,.37.37,0,0,0,3.09,4.66Z"/><path class="cls-1" d="M5.41,5.81A1.16,1.16,0,1,1,6.58,4.66,1.17,1.17,0,0,1,5.41,5.81Zm0-1.55a.4.4,0,0,0-.4.37.4.4,0,0,0,.38.4.37.37,0,0,0,.39-.37A.39.39,0,0,0,5.43,4.26Z"/><path class="cls-1" d="M8.13,3.49A1.16,1.16,0,1,1,7,4.66,1.16,1.16,0,0,1,8.13,3.49ZM8.12,5a.38.38,0,0,0,.39-.38.39.39,0,0,0-.37-.39.4.4,0,0,0-.4.38A.39.39,0,0,0,8.12,5Z"/></svg>