<svg id="Layer_1" data-name="Layer 1" xmlns="http://www.w3.org/2000/svg" viewBox="0 0 24 24"><defs><style>.cls-1{fill:#fff;}</style></defs><path class="cls-1" d="M7.6,4.64A2.26,2.26,0,1,0,5.35,2.38,2.25,2.25,0,0,0,7.6,4.64Z"/><polygon class="cls-1" points="12.89 12.88 13.9 13.34 15.37 10.11 17.09 10.11 18.81 13.37 19.78 12.85 18.34 10.11 19.94 10.11 19.94 4.1 12.32 4.1 12.32 10.11 14.15 10.11 12.89 12.88"/><polygon class="cls-1" points="6.16 13.26 9.15 13.26 9.15 10.84 10.71 10.84 10.71 5.71 4.6 5.71 4.6 10.84 6.16 10.84 6.16 13.26"/><path class="cls-1" d="M12,19S8.63,16,2.42,16.36v4.21S9.55,20,12,23.87c2.45-3.91,9.58-3.3,9.58-3.3V16.36C15.37,16,12,19,12,19Z"/></svg>