<svg id="Layer_1" data-name="Layer 1" xmlns="http://www.w3.org/2000/svg" viewBox="0 0 24 24"><defs><style>.cls-1{fill:#fff;}</style></defs><path class="cls-1" d="M19,0l2,5.24-5.24-.77c.11-.14.2-.27.3-.41.29-.4.58-.81.88-1.21.05-.07.05-.1,0-.14a10.45,10.45,0,0,0-3.39-1.1A10.48,10.48,0,0,0,4,5.23a10.28,10.28,0,0,0-2.34,5,10.5,10.5,0,0,0,3.78,10,10.28,10.28,0,0,0,4.94,2.18,10.45,10.45,0,0,0,9.79-3.76,10.49,10.49,0,0,0,1.6-10.48c-.05-.1,0-.14.07-.18L23,7.48c.07,0,.1,0,.14,0a12.45,12.45,0,0,1,.79,3.18,11.68,11.68,0,0,1-1,6.2,11.81,11.81,0,0,1-6.38,6.18,11.43,11.43,0,0,1-4.93.9,11.75,11.75,0,0,1-7.57-3A11.73,11.73,0,0,1,.31,14.7,11.29,11.29,0,0,1,.05,11,11.79,11.79,0,0,1,3.9,3.16,11.65,11.65,0,0,1,9.75.22a11.84,11.84,0,0,1,8,1.27c.09.05.13,0,.18,0,.33-.47.67-.93,1-1.39Z"/><path class="cls-1" d="M12,18c-.94,0-1.88,0-2.82,0a1.65,1.65,0,0,1-1.65-1.51,2.62,2.62,0,0,1,0-.28V12.28a1.78,1.78,0,0,1,.6-1.41,1.51,1.51,0,0,1,.79-.36c.08,0,.09,0,.09-.1C9,10,9,9.59,9,9.19a3.59,3.59,0,0,1,.8-2.27,2.55,2.55,0,0,1,1.37-.83,3.48,3.48,0,0,1,2,.09,2.67,2.67,0,0,1,1.63,1.73A4.09,4.09,0,0,1,15,9.29v1.13c0,.05,0,.08.07.09A1.65,1.65,0,0,1,16.48,12a2.48,2.48,0,0,1,0,.38v3.86a1.76,1.76,0,0,1-.6,1.39,1.49,1.49,0,0,1-1,.38Zm-.65-2.46c0,.28,0,.56,0,.84,0,.08,0,.11.1.11h1.09c.09,0,.1,0,.1-.12,0-.51,0-1,0-1.55,0-.14,0-.24.16-.3a.75.75,0,0,0,.18-.13A1.19,1.19,0,0,0,13.41,13a1.44,1.44,0,0,0-1.15-1,1.46,1.46,0,0,0-1.45.53,1.22,1.22,0,0,0,.16,1.8,1.54,1.54,0,0,0,.29.21.14.14,0,0,1,.08.16Zm.67-5h1.38c.09,0,.11,0,.11-.11v-.9a4.39,4.39,0,0,0,0-.81,1.29,1.29,0,0,0-.73-1,1.55,1.55,0,0,0-.6-.14,1.6,1.6,0,0,0-1.1.27,1.38,1.38,0,0,0-.53,1.1c0,.51,0,1,0,1.52,0,.08,0,.1.1.1Z"/></svg>