
<svg version="1.1" id="Layer_1" xmlns="http://www.w3.org/2000/svg" xmlns:xlink="http://www.w3.org/1999/xlink" x="0px" y="0px"
	 viewBox="0 0 1366 1482.2" style="enable-background:new 0 0 1366 1482.2;" xml:space="preserve">
<style type="text/css">
	.st8{fill:#FEAD00;}
	.st9{fill:#FDC030;}
	.st10{fill:#52B573;}
	.st11{fill:#59ADDD;}
	.st12{fill:#1C5080;}
	.st13{fill:#73A4E8;}
	.st14{fill:#C1D3F5;}
	.st15{fill:#212634;}
	.st16{fill:#1A1C2B;}
	.st17{fill:#1E223F;}
	.st18{fill:#A00013;}
	.st19{fill:#CCCCCC;}
	.st20{fill:#747474;}
</style>
<text transform="matrix(1 0 0 1 545.5548 1170.7866)" class="st0"><tspan x="0" y="0" class="st1 st2 st3">F</tspan><tspan x="12.5" y="0" class="st1 st4 st3 st5">i</tspan><tspan x="18.3" y="0" class="st1 st6 st3">n</tspan><tspan x="30.5" y="0" class="st1 st6 st3">d</tspan><tspan x="43.3" y="0" class="st1 st2 st3 st7">T</tspan><tspan x="53" y="0" class="st1 st6 st3">e</tspan><tspan x="65.2" y="0" class="st1 st6 st3">ache</tspan><tspan x="112.3" y="0" class="st1 st4 st3">r</tspan></text>
<rect x="49.4" y="90.4" class="st8" width="137.4" height="137.4"/>
<rect x="200.3" y="90.4" class="st9" width="137.4" height="137.4"/>
<rect x="351.2" y="90.4" class="st10" width="137.4" height="137.4"/>
<rect x="502.1" y="90.4" class="st11" width="137.4" height="137.4"/>
<rect x="653" y="90.4" class="st12" width="137.4" height="137.4"/>
<rect x="804" y="90.4" class="st13" width="137.4" height="137.4"/>
<rect x="954.9" y="90.4" class="st14" width="137.4" height="137.4"/>
<rect x="1105.8" y="90.4" class="st15" width="137.4" height="137.4"/>
<rect x="653" y="243.6" class="st16" width="137.4" height="137.4"/>
<rect x="804" y="243.6" class="st17" width="137.4" height="137.4"/>
<rect x="954.9" y="243.6" class="st18" width="137.4" height="137.4"/>
<rect x="502.1" y="243.6" class="st19" width="137.4" height="137.4"/>
<rect x="1105.8" y="243.6" class="st20" width="137.4" height="137.4"/>
</svg>
