<svg id="Layer_1" data-name="Layer 1" xmlns="http://www.w3.org/2000/svg" viewBox="0 0 74.12 102.72"><defs><style>.cls-1{fill:#fff;}.cls-2{fill:#73a4e8;}.cls-3{fill:#1c5080;}.cls-4{fill:#fdc030;}</style></defs><rect class="cls-1" y="8.96" width="74.12" height="93.76"/><circle class="cls-2" cx="37.44" cy="12.18" r="12.18"/><path class="cls-1" d="M36.54,10.26l-1.07.25-.33-1.36L37,8.62h1.28V15H36.54Z"/><rect class="cls-1" x="36.26" y="36.17" width="10.69" height="7.2" rx="0.25"/><rect class="cls-2" x="37.5" y="37.52" width="8.15" height="4.37"/><rect class="cls-3" x="38.49" y="38.07" width="6.51" height="1.04"/><rect class="cls-3" x="40.3" y="40.48" width="4.78" height="0.92"/><path class="cls-3" d="M46.7,35.1H36.51a1.32,1.32,0,0,0-1.32,1.32v6.7a1.32,1.32,0,0,0,1.32,1.32H38.8l-1.64,8.19,1.05.21.47-2.36h5.9l.55,2.38,1-.24-1.91-8.18H46.7A1.32,1.32,0,0,0,48,43.12v-6.7A1.32,1.32,0,0,0,46.7,35.1ZM44.33,49.41H38.89l1-5h3.28ZM47,43.12a.25.25,0,0,1-.25.25H36.51a.25.25,0,0,1-.25-.25v-6.7a.25.25,0,0,1,.25-.25H46.7a.25.25,0,0,1,.25.25Z"/><path class="cls-3" d="M30.36,42.15a2.31,2.31,0,1,0-2.31-2.31A2.31,2.31,0,0,0,30.36,42.15Zm0-3.55a1.24,1.24,0,1,1-1.24,1.24A1.25,1.25,0,0,1,30.36,38.6Z"/><path class="cls-3" d="M32.68,43.2H31.47l-1,2.4-1.14-2.4h-1.1A1.81,1.81,0,0,0,26.39,45v5a1.82,1.82,0,0,0,1.21,1.71v5.21h5.69V51.73A1.82,1.82,0,0,0,34.51,50V45A1.82,1.82,0,0,0,32.68,43.2ZM31,55.88v-3.4H29.91v3.4H28.67v-4h3.56v4ZM33.44,50a.76.76,0,0,1-.56.73H28a.76.76,0,0,1-.57-.73V45a.76.76,0,0,1,.76-.76h.42l.85,1.8,1,2.15L31.43,46l.74-1.76h.51a.76.76,0,0,1,.76.76Z"/><path class="cls-4" d="M33.44,50a.76.76,0,0,1-.56.73H28a.76.76,0,0,1-.57-.73V45a.76.76,0,0,1,.76-.76h.42l.85,1.8,1,2.15L31.43,46l.74-1.76h.51a.76.76,0,0,1,.76.76Z"/><path d="M19.71,73.91a1.07,1.07,0,0,1-.32.41,1.32,1.32,0,0,1-.5.26,2.11,2.11,0,0,1-.64.09,2.63,2.63,0,0,1-1-.17,2.43,2.43,0,0,1-.87-.52l.56-.67a2.67,2.67,0,0,0,.61.38,1.56,1.56,0,0,0,.68.14.85.85,0,0,0,.46-.1.33.33,0,0,0,.16-.3h0a.43.43,0,0,0,0-.17.4.4,0,0,0-.13-.13,1.18,1.18,0,0,0-.27-.12,3.5,3.5,0,0,0-.44-.13l-.59-.18a1.89,1.89,0,0,1-.45-.24,1,1,0,0,1-.29-.36,1.27,1.27,0,0,1-.1-.54h0a1.2,1.2,0,0,1,.42-1,1.43,1.43,0,0,1,.47-.26,2,2,0,0,1,.61-.09,2.41,2.41,0,0,1,.87.14,2.66,2.66,0,0,1,.74.4l-.5.72a2.87,2.87,0,0,0-.56-.31,1.41,1.41,0,0,0-.56-.12.72.72,0,0,0-.42.11.32.32,0,0,0-.13.27h0a.34.34,0,0,0,0,.18.27.27,0,0,0,.14.14,1.7,1.7,0,0,0,.29.12l.46.13a4.94,4.94,0,0,1,.58.19,2,2,0,0,1,.44.26,1,1,0,0,1,.26.36,1.14,1.14,0,0,1,.09.48v0A1.32,1.32,0,0,1,19.71,73.91Z"/><path d="M23.64,73.17a.41.41,0,0,0,0,.12h-2.3a.78.78,0,0,0,.28.48.84.84,0,0,0,.53.16.91.91,0,0,0,.41-.08,1.26,1.26,0,0,0,.39-.26l.53.48a1.64,1.64,0,0,1-.56.45,1.8,1.8,0,0,1-.79.17,1.91,1.91,0,0,1-.68-.13,1.48,1.48,0,0,1-.55-.35,1.42,1.42,0,0,1-.36-.54A1.73,1.73,0,0,1,20.4,73h0a1.85,1.85,0,0,1,.12-.67,1.79,1.79,0,0,1,.33-.55,1.76,1.76,0,0,1,.52-.37,1.59,1.59,0,0,1,.66-.13,1.78,1.78,0,0,1,.72.14,1.64,1.64,0,0,1,.5.4,1.67,1.67,0,0,1,.29.58,2.13,2.13,0,0,1,.1.67h0Zm-1.13-1a.7.7,0,0,0-1,0,.93.93,0,0,0-.23.51h1.41A1,1,0,0,0,22.51,72.19Z"/><path d="M26.27,74.61v-.36a1.27,1.27,0,0,1-.41.31,1.32,1.32,0,0,1-.59.11,1.61,1.61,0,0,1-.44-.06.91.91,0,0,1-.36-.2.92.92,0,0,1-.24-.31,1,1,0,0,1-.09-.44h0a1,1,0,0,1,.1-.47.76.76,0,0,1,.27-.32,1.17,1.17,0,0,1,.42-.2,2.23,2.23,0,0,1,.54-.06,2.76,2.76,0,0,1,.44,0l.37.1v0a.55.55,0,0,0-.18-.45.76.76,0,0,0-.53-.16,2.28,2.28,0,0,0-.48.05,2.61,2.61,0,0,0-.43.13l-.24-.71a2.73,2.73,0,0,1,.57-.19,2.9,2.9,0,0,1,.71-.08,1.29,1.29,0,0,1,1.48,1.43v1.91Zm0-1.33a1.07,1.07,0,0,0-.27-.09,1.76,1.76,0,0,0-.33,0,.88.88,0,0,0-.47.11.39.39,0,0,0-.18.34v0a.34.34,0,0,0,.15.29.58.58,0,0,0,.37.11.86.86,0,0,0,.53-.16.53.53,0,0,0,.2-.42Z"/><path d="M29.93,72.23a1,1,0,0,0-.74.28,1.24,1.24,0,0,0-.27.88v1.22H28v-3.3h.94V72a1.45,1.45,0,0,1,.39-.54.93.93,0,0,1,.66-.18v1Z"/><path d="M32.92,74.52a1.67,1.67,0,0,1-.8.17,1.74,1.74,0,0,1-.69-.14,1.58,1.58,0,0,1-.54-.37,1.55,1.55,0,0,1-.36-.54A1.65,1.65,0,0,1,30.4,73h0a1.67,1.67,0,0,1,.13-.67,1.69,1.69,0,0,1,.36-.55,1.73,1.73,0,0,1,.54-.37,1.78,1.78,0,0,1,.7-.13,2,2,0,0,1,.78.14,1.93,1.93,0,0,1,.54.41l-.57.62a2,2,0,0,0-.33-.27.93.93,0,0,0-.42-.1.88.88,0,0,0-.33.07,1,1,0,0,0-.25.2.92.92,0,0,0-.17.29.93.93,0,0,0-.06.34v0a1,1,0,0,0,.06.35.92.92,0,0,0,.17.29.86.86,0,0,0,.27.2.77.77,0,0,0,.34.07.76.76,0,0,0,.41-.1,1.61,1.61,0,0,0,.35-.25l.55.55A2.13,2.13,0,0,1,32.92,74.52Z"/><path d="M36.17,74.61V72.77a.75.75,0,0,0-.15-.5.54.54,0,0,0-.42-.17.58.58,0,0,0-.43.17.75.75,0,0,0-.15.5v1.84h-.94v-4.5H35v1.67a1.63,1.63,0,0,1,.17-.2,1.57,1.57,0,0,1,.21-.17,1.23,1.23,0,0,1,.26-.12,1.25,1.25,0,0,1,1.15.28,1.29,1.29,0,0,1,.3.9v2.14Z"/><path d="M41.3,74.62a1.73,1.73,0,0,1-.42,0,1.6,1.6,0,0,1-.39,0,.62.62,0,0,1-.3-.16.87.87,0,0,1-.2-.31,1.5,1.5,0,0,1-.07-.47V72.11h-.39v-.8h.39v-.85h.94v.85h.78v.8h-.78v1.41c0,.21.1.32.3.32a.93.93,0,0,0,.46-.12v.76A2.37,2.37,0,0,1,41.3,74.62Z"/><path d="M44.39,74.61v-.47a1.12,1.12,0,0,1-.18.2.87.87,0,0,1-.21.17,1,1,0,0,1-.58.16,1.08,1.08,0,0,1-.83-.32,1.33,1.33,0,0,1-.29-.9V71.31h.94v1.84a.73.73,0,0,0,.15.5.51.51,0,0,0,.41.17.56.56,0,0,0,.43-.17.68.68,0,0,0,.16-.5V71.31h.94v3.3Z"/><path d="M47.69,74.62a1.64,1.64,0,0,1-.41,0,1.6,1.6,0,0,1-.39,0,.62.62,0,0,1-.3-.16.76.76,0,0,1-.2-.31,1.26,1.26,0,0,1-.07-.47V72.11h-.4v-.8h.4v-.85h.94v.85H48v.8h-.77v1.41c0,.21.1.32.3.32a.93.93,0,0,0,.46-.12v.76A2.52,2.52,0,0,1,47.69,74.62Z"/><path d="M52,73.64a1.83,1.83,0,0,1-.38.54,1.66,1.66,0,0,1-.56.37,1.9,1.9,0,0,1-1.43,0,1.74,1.74,0,0,1-.56-.36,1.58,1.58,0,0,1-.37-.54,1.67,1.67,0,0,1-.14-.67h0a1.67,1.67,0,0,1,.14-.67,1.72,1.72,0,0,1,.37-.55,1.79,1.79,0,0,1,1.29-.5,1.78,1.78,0,0,1,.7.13,1.85,1.85,0,0,1,.57.36,1.72,1.72,0,0,1,.37.55,1.63,1.63,0,0,1,.14.66v0A1.71,1.71,0,0,1,52,73.64ZM51.21,73a1,1,0,0,0-.06-.35.79.79,0,0,0-.18-.29.8.8,0,0,0-.28-.2.78.78,0,0,0-.35-.08.8.8,0,0,0-.63.27.92.92,0,0,0-.17.29,1.21,1.21,0,0,0,0,.34v0a.93.93,0,0,0,.06.34.79.79,0,0,0,.18.29.66.66,0,0,0,.27.2.83.83,0,0,0,.36.08.86.86,0,0,0,.36-.07.89.89,0,0,0,.43-.48,1,1,0,0,0,.06-.35Z"/><path d="M54.76,72.23a1,1,0,0,0-.74.28,1.24,1.24,0,0,0-.27.88v1.22h-.94v-3.3h.94V72a1.45,1.45,0,0,1,.39-.54.93.93,0,0,1,.66-.18v1Z"/><path d="M57.72,74.08a.89.89,0,0,1-.27.33,1.12,1.12,0,0,1-.41.2,1.88,1.88,0,0,1-.49.06,2.31,2.31,0,0,1-.72-.12,2.19,2.19,0,0,1-.7-.38l.4-.61a2,2,0,0,0,.54.29,1.39,1.39,0,0,0,.5.1.47.47,0,0,0,.3-.07.19.19,0,0,0,.1-.17v0a.18.18,0,0,0-.06-.13.49.49,0,0,0-.15-.09l-.22-.08-.26-.08a2.3,2.3,0,0,1-.34-.12,1.4,1.4,0,0,1-.32-.18.84.84,0,0,1-.32-.69h0a1,1,0,0,1,.73-1,1.51,1.51,0,0,1,.48-.07,2,2,0,0,1,.63.1,2.36,2.36,0,0,1,.6.28l-.36.65a2.62,2.62,0,0,0-.48-.23,1.4,1.4,0,0,0-.41-.08.45.45,0,0,0-.26.06.21.21,0,0,0-.09.17h0a.14.14,0,0,0,.06.12.36.36,0,0,0,.15.1l.21.09.25.08.36.14a1.5,1.5,0,0,1,.32.19.87.87,0,0,1,.23.27.74.74,0,0,1,.09.38v0A1.13,1.13,0,0,1,57.72,74.08Z"/><path d="M19.11,81.75v-4.5h.94v4.5Z"/><path d="M24.21,80.78a1.71,1.71,0,0,1-.38.54,1.76,1.76,0,0,1-.56.37,1.9,1.9,0,0,1-1.43,0,1.67,1.67,0,0,1-.93-.9,1.67,1.67,0,0,1-.14-.67h0a1.67,1.67,0,0,1,.14-.67,1.72,1.72,0,0,1,.37-.55,1.79,1.79,0,0,1,1.28-.5,1.8,1.8,0,0,1,.71.13,1.85,1.85,0,0,1,.57.36,1.9,1.9,0,0,1,.37.55,1.64,1.64,0,0,1,.14.67h0A1.67,1.67,0,0,1,24.21,80.78Zm-.79-.67a1,1,0,0,0-.06-.35.79.79,0,0,0-.18-.29,1,1,0,0,0-.28-.2.78.78,0,0,0-.35-.07.86.86,0,0,0-.36.07.83.83,0,0,0-.27.19.92.92,0,0,0-.17.29,1,1,0,0,0-.05.35h0a1,1,0,0,0,.06.35,1,1,0,0,0,.18.29.79.79,0,0,0,.27.2.78.78,0,0,0,.35.07.8.8,0,0,0,.36-.07.68.68,0,0,0,.27-.2.73.73,0,0,0,.17-.28,1,1,0,0,0,.06-.35Z"/><path d="M27.38,81.66a1.67,1.67,0,0,1-.8.17,1.72,1.72,0,0,1-.68-.14,1.53,1.53,0,0,1-.55-.37,1.7,1.7,0,0,1-.36-.54,1.8,1.8,0,0,1-.13-.66h0a1.74,1.74,0,0,1,.49-1.22,1.66,1.66,0,0,1,.55-.37,2,2,0,0,1,1.47,0,1.52,1.52,0,0,1,.54.4l-.57.62a2,2,0,0,0-.33-.27.87.87,0,0,0-.42-.09.72.72,0,0,0-.33.07.76.76,0,0,0-.25.19.75.75,0,0,0-.16.29,1,1,0,0,0-.06.35h0a1,1,0,0,0,.06.35.61.61,0,0,0,.17.29.73.73,0,0,0,.26.2.78.78,0,0,0,.35.07.8.8,0,0,0,.41-.1,1.84,1.84,0,0,0,.34-.25l.55.55A2.13,2.13,0,0,1,27.38,81.66Z"/><path d="M30.48,81.75V81.4a1.6,1.6,0,0,1-.42.3,1.28,1.28,0,0,1-.58.11,1.56,1.56,0,0,1-.44-.06,1,1,0,0,1-.36-.19,1.11,1.11,0,0,1-.25-.32,1,1,0,0,1-.09-.44h0a1.16,1.16,0,0,1,.1-.47.87.87,0,0,1,.28-.32,1.17,1.17,0,0,1,.42-.2,2.23,2.23,0,0,1,.54-.06,2.94,2.94,0,0,1,.44,0l.36.1v-.05a.55.55,0,0,0-.18-.45.78.78,0,0,0-.53-.16,2.12,2.12,0,0,0-.47.05,4.29,4.29,0,0,0-.44.13l-.23-.71a3.47,3.47,0,0,1,.57-.19,2.84,2.84,0,0,1,.71-.08,1.47,1.47,0,0,1,1.12.38,1.45,1.45,0,0,1,.35,1v1.91Zm0-1.33a2.29,2.29,0,0,0-.28-.09,1.66,1.66,0,0,0-.32,0,.85.85,0,0,0-.48.12.38.38,0,0,0-.17.33v0a.36.36,0,0,0,.14.29.62.62,0,0,0,.37.11A.91.91,0,0,0,30.3,81a.53.53,0,0,0,.2-.42Z"/><path d="M32.23,81.75v-4.5h.94v4.5Z"/><path d="M37.43,81.76a1.7,1.7,0,0,1-.41,0,1.62,1.62,0,0,1-.4,0,.73.73,0,0,1-.3-.16.74.74,0,0,1-.19-.31,1.24,1.24,0,0,1-.08-.47V79.25h-.39v-.8h.39v-.84H37v.84h.78v.8H37v1.41c0,.22.1.32.3.32a1.08,1.08,0,0,0,.47-.11v.75A1.64,1.64,0,0,1,37.43,81.76Z"/><path d="M41.74,80.78a1.77,1.77,0,0,1-1,.91,1.8,1.8,0,0,1-.71.14,1.83,1.83,0,0,1-.71-.14,1.42,1.42,0,0,1-.56-.36,1.6,1.6,0,0,1-.38-.54,1.67,1.67,0,0,1-.13-.67h0a1.67,1.67,0,0,1,.13-.67,1.75,1.75,0,0,1,.38-.55,1.87,1.87,0,0,1,.57-.37,1.8,1.8,0,0,1,.71-.13,1.83,1.83,0,0,1,.71.13,1.69,1.69,0,0,1,.56.36,1.75,1.75,0,0,1,.38.55,1.63,1.63,0,0,1,.13.67h0A1.67,1.67,0,0,1,41.74,80.78ZM41,80.11a1,1,0,0,0-.06-.35.87.87,0,0,0-.46-.49.81.81,0,0,0-.35-.07.8.8,0,0,0-.36.07.66.66,0,0,0-.27.19.92.92,0,0,0-.17.29,1,1,0,0,0-.06.35h0a1,1,0,0,0,.06.35,1,1,0,0,0,.18.29,1,1,0,0,0,.28.2.78.78,0,0,0,.35.07.8.8,0,0,0,.36-.07.68.68,0,0,0,.27-.2.88.88,0,0,0,.17-.28,1,1,0,0,0,.06-.35Z"/><path d="M46.27,81.83a3.63,3.63,0,0,1-.19.43,1.16,1.16,0,0,1-.24.29.78.78,0,0,1-.28.16,1.38,1.38,0,0,1-.37.05,1.45,1.45,0,0,1-.83-.23l.31-.68a.72.72,0,0,0,.2.09.51.51,0,0,0,.2,0,.27.27,0,0,0,.19,0,.38.38,0,0,0,.14-.16l-1.3-3.32h1l.75,2.25.72-2.25h1Z"/><path d="M51.38,80.78a1.88,1.88,0,0,1-.38.54,1.7,1.7,0,0,1-.57.37,1.87,1.87,0,0,1-1.42,0,1.54,1.54,0,0,1-.57-.36,1.73,1.73,0,0,1-.37-.54,1.67,1.67,0,0,1-.13-.67h0a1.67,1.67,0,0,1,.13-.67,1.75,1.75,0,0,1,.38-.55,2,2,0,0,1,.56-.37,2,2,0,0,1,1.43,0,1.8,1.8,0,0,1,.56.36,1.93,1.93,0,0,1,.38.55,1.63,1.63,0,0,1,.13.67h0A1.67,1.67,0,0,1,51.38,80.78Zm-.79-.67a.81.81,0,0,0-.07-.35.92.92,0,0,0-.17-.29,1,1,0,0,0-.28-.2.84.84,0,0,0-.35-.07.8.8,0,0,0-.36.07.66.66,0,0,0-.27.19.77.77,0,0,0-.17.29,1,1,0,0,0-.06.35h0a1,1,0,0,0,.06.35,1,1,0,0,0,.18.29,1,1,0,0,0,.28.2.78.78,0,0,0,.35.07.8.8,0,0,0,.36-.07.86.86,0,0,0,.27-.2.88.88,0,0,0,.17-.28,1,1,0,0,0,.06-.35Z"/><path d="M54.25,81.75v-.47a1.63,1.63,0,0,1-.17.2,1.57,1.57,0,0,1-.21.17,1.23,1.23,0,0,1-.26.12,1.12,1.12,0,0,1-.32,0,1,1,0,0,1-.83-.32,1.29,1.29,0,0,1-.3-.9V78.45h.94v1.84a.73.73,0,0,0,.15.5.54.54,0,0,0,.42.17.58.58,0,0,0,.43-.17.73.73,0,0,0,.15-.5V78.45h.94v3.3Z"/></svg>