<svg id="Layer_1" data-name="Layer 1" xmlns="http://www.w3.org/2000/svg" viewBox="0 0 74.12 102.72"><defs><style>.cls-1{fill:#fff;}.cls-2{fill:#73a4e8;}.cls-3{fill:#1c5080;}.cls-4{fill:#fdc030;}</style></defs><rect class="cls-1" y="8.96" width="74.12" height="93.76"/><circle class="cls-2" cx="37.44" cy="12.18" r="12.18"/><path class="cls-1" d="M34.91,13.69l2.37-1.81c.59-.46.82-.76.82-1.14a.64.64,0,0,0-.71-.65c-.42,0-.76.25-1.26.82L35,9.92a2.93,2.93,0,0,1,2.58-1.36,2.09,2.09,0,0,1,2.34,2v0c0,1-.53,1.54-1.47,2.22l-1.09.76h2.62V15h-5Z"/><path d="M20.91,74.64h-.84L18.33,70.3h1.05l1.13,3,1.12-3h1Z"/><path d="M23.24,71v-.84h1V71Zm0,3.66v-3.3h.93v3.3Z"/><path d="M28.16,73.17a.57.57,0,0,1,0,.12h-2.3a.79.79,0,0,0,.29.48.81.81,0,0,0,.52.16.93.93,0,0,0,.42-.08,1.55,1.55,0,0,0,.38-.25l.54.47a1.78,1.78,0,0,1-.57.45,1.73,1.73,0,0,1-.78.17,1.93,1.93,0,0,1-.69-.13,1.67,1.67,0,0,1-.55-.35,1.7,1.7,0,0,1-.36-.54,1.93,1.93,0,0,1-.13-.69h0A1.85,1.85,0,0,1,25,72.3a1.82,1.82,0,0,1,.34-.55,1.64,1.64,0,0,1,.52-.37,1.56,1.56,0,0,1,.66-.13,1.73,1.73,0,0,1,.71.14,1.56,1.56,0,0,1,.8,1,2.47,2.47,0,0,1,.1.67h0A.41.41,0,0,1,28.16,73.17Zm-1.13-1a.61.61,0,0,0-.47-.19.62.62,0,0,0-.48.19,1,1,0,0,0-.24.51h1.41A.85.85,0,0,0,27,72.19Z"/><path d="M32.57,74.64h-.84l-.64-2-.64,2h-.84l-1-3.33h.95l.53,2,.62-2h.81l.63,2,.54-2h.93Z"/><path d="M37.55,74.61a1.33,1.33,0,0,1-.42.06,1.6,1.6,0,0,1-.39,0,.62.62,0,0,1-.3-.16.87.87,0,0,1-.2-.31,1.5,1.5,0,0,1-.07-.47V72.11h-.39v-.8h.39v-.85h.94v.85h.77v.8h-.77v1.41c0,.21.1.32.3.32a.93.93,0,0,0,.46-.12v.76A1.79,1.79,0,0,1,37.55,74.61Z"/><path d="M40.64,74.61v-.47a1.12,1.12,0,0,1-.18.2.87.87,0,0,1-.21.17,1,1,0,0,1-.58.16,1.08,1.08,0,0,1-.83-.32,1.33,1.33,0,0,1-.29-.9V71.31h.94v1.84a.73.73,0,0,0,.15.5.51.51,0,0,0,.41.17.56.56,0,0,0,.43-.17.68.68,0,0,0,.16-.5V71.31h.94v3.3Z"/><path d="M43.94,74.61a1.27,1.27,0,0,1-.41.06,1.6,1.6,0,0,1-.39,0,.62.62,0,0,1-.3-.16.76.76,0,0,1-.2-.31,1.26,1.26,0,0,1-.07-.47V72.11h-.4v-.8h.4v-.85h.94v.85h.77v.8h-.77v1.41c0,.21.1.32.3.32a.93.93,0,0,0,.46-.12v.76A1.62,1.62,0,0,1,43.94,74.61Z"/><path d="M48.25,73.63a1.75,1.75,0,0,1-.38.55,1.66,1.66,0,0,1-.56.37,1.9,1.9,0,0,1-1.43,0,1.74,1.74,0,0,1-.56-.36A1.71,1.71,0,0,1,44.81,73h0A1.67,1.67,0,0,1,45,72.3a1.72,1.72,0,0,1,.37-.55,1.79,1.79,0,0,1,1.28-.5,1.8,1.8,0,0,1,.71.13,1.85,1.85,0,0,1,.57.36,1.72,1.72,0,0,1,.37.55,1.63,1.63,0,0,1,.14.66v0A1.63,1.63,0,0,1,48.25,73.63ZM47.46,73a1,1,0,0,0-.06-.35.79.79,0,0,0-.18-.29.8.8,0,0,0-.28-.2.78.78,0,0,0-.35-.08.8.8,0,0,0-.63.27.92.92,0,0,0-.17.29,1.21,1.21,0,0,0,0,.34v0a.93.93,0,0,0,.06.34.79.79,0,0,0,.18.29.66.66,0,0,0,.27.2.82.82,0,0,0,.35.08,1.06,1.06,0,0,0,.37-.07.89.89,0,0,0,.43-.48,1,1,0,0,0,.06-.35Z"/><path d="M51,72.23a1,1,0,0,0-.74.28,1.24,1.24,0,0,0-.27.88v1.22h-.94v-3.3H50V72a1.45,1.45,0,0,1,.39-.54.91.91,0,0,1,.66-.18v1Z"/><path d="M54,74.09a.94.94,0,0,1-.27.32,1.12,1.12,0,0,1-.41.2,1.88,1.88,0,0,1-.49.06,2.31,2.31,0,0,1-.72-.12,2.19,2.19,0,0,1-.7-.38l.4-.61a2,2,0,0,0,.54.29,1.39,1.39,0,0,0,.5.1.47.47,0,0,0,.3-.07.19.19,0,0,0,.1-.17v0a.18.18,0,0,0-.06-.13.49.49,0,0,0-.15-.09l-.22-.08-.26-.08a2.3,2.3,0,0,1-.34-.12,1.4,1.4,0,0,1-.32-.18.89.89,0,0,1-.23-.28.86.86,0,0,1-.09-.41h0a1,1,0,0,1,.73-1,1.51,1.51,0,0,1,.48-.07,2,2,0,0,1,.63.1,2.36,2.36,0,0,1,.6.28l-.36.65a2.62,2.62,0,0,0-.48-.23,1.4,1.4,0,0,0-.41-.08.38.38,0,0,0-.26.07.18.18,0,0,0-.09.16h0a.14.14,0,0,0,.06.12.36.36,0,0,0,.15.1l.21.09.25.09a2.09,2.09,0,0,1,.35.13,1.35,1.35,0,0,1,.33.19.87.87,0,0,1,.23.27.75.75,0,0,1,.09.39h0A1.21,1.21,0,0,1,54,74.09Z"/><path d="M55.1,71.28h-.37v-1h1v.83a1.13,1.13,0,0,1-.3.88,1.18,1.18,0,0,1-.84.27l-.08-.39C54.94,71.85,55.14,71.65,55.1,71.28Z"/><path d="M16,80.84a1.49,1.49,0,0,1-.33.53,1.29,1.29,0,0,1-.48.33,1.36,1.36,0,0,1-.56.11,1.16,1.16,0,0,1-.62-.14,1.73,1.73,0,0,1-.41-.34v1.41h-.94V78.45h.94v.47a1.49,1.49,0,0,1,.41-.38,1.19,1.19,0,0,1,.62-.15,1.55,1.55,0,0,1,.56.11,1.29,1.29,0,0,1,.48.33,1.45,1.45,0,0,1,.33.54,1.83,1.83,0,0,1,.13.73h0A1.86,1.86,0,0,1,16,80.84Zm-.81-.74a1.12,1.12,0,0,0-.06-.38.79.79,0,0,0-.18-.29.92.92,0,0,0-.25-.19.81.81,0,0,0-.31-.06.78.78,0,0,0-.31.06.83.83,0,0,0-.26.19.92.92,0,0,0-.17.29,1.12,1.12,0,0,0-.06.38h0a1.1,1.1,0,0,0,.06.37.82.82,0,0,0,.17.29.61.61,0,0,0,.26.19.78.78,0,0,0,.31.07.82.82,0,0,0,.31-.07.64.64,0,0,0,.25-.19.75.75,0,0,0,.18-.28,1.16,1.16,0,0,0,.06-.38Z"/><path d="M18.79,79.37a.94.94,0,0,0-.73.28,1.24,1.24,0,0,0-.27.88v1.22h-.94v-3.3h.94v.67a1.31,1.31,0,0,1,.39-.55,1,1,0,0,1,.66-.18v1Z"/><path d="M22.71,80.78a1.77,1.77,0,0,1-.95.91,1.8,1.8,0,0,1-.71.14,1.83,1.83,0,0,1-.71-.14,1.42,1.42,0,0,1-.56-.36,1.6,1.6,0,0,1-.38-.54,1.67,1.67,0,0,1-.13-.67h0a1.67,1.67,0,0,1,.13-.67,1.75,1.75,0,0,1,.38-.55,1.87,1.87,0,0,1,.57-.37,1.8,1.8,0,0,1,.71-.13,1.87,1.87,0,0,1,.71.13,1.8,1.8,0,0,1,.56.36,1.75,1.75,0,0,1,.38.55,1.63,1.63,0,0,1,.13.67h0A1.67,1.67,0,0,1,22.71,80.78Zm-.79-.67a1,1,0,0,0-.06-.35,1.19,1.19,0,0,0-.18-.29,1,1,0,0,0-.28-.2.81.81,0,0,0-.35-.07.8.8,0,0,0-.36.07.66.66,0,0,0-.27.19.92.92,0,0,0-.17.29,1,1,0,0,0-.06.35h0a1,1,0,0,0,.06.35,1,1,0,0,0,.18.29,1,1,0,0,0,.28.2.78.78,0,0,0,.35.07.8.8,0,0,0,.36-.07.68.68,0,0,0,.27-.2.88.88,0,0,0,.17-.28,1,1,0,0,0,.06-.35Z"/><path d="M25.16,78l-.22,0c-.22,0-.34.12-.34.36v.13h.76v.76h-.74v2.5h-.94v-2.5h-.39v-.77h.39v-.21a1.1,1.1,0,0,1,.26-.8,1.06,1.06,0,0,1,.76-.26,2,2,0,0,1,.38,0,2.11,2.11,0,0,1,.29.06v.78Z"/><path d="M25.89,78.09v-.84h1v.84Zm0,3.66v-3.3h.93v3.3Z"/><path d="M27.78,81.75v-4.5h.93v4.5Z"/><path d="M32.67,80.31a.57.57,0,0,1,0,.12H30.37a.73.73,0,0,0,.28.48.81.81,0,0,0,.52.17,1.08,1.08,0,0,0,.42-.08,1.43,1.43,0,0,0,.38-.26l.54.47a1.56,1.56,0,0,1-.57.45,1.73,1.73,0,0,1-.78.17,1.77,1.77,0,0,1-.69-.13,1.53,1.53,0,0,1-.54-.35,1.58,1.58,0,0,1-.37-.54,1.88,1.88,0,0,1-.12-.69h0a1.85,1.85,0,0,1,.12-.67,1.79,1.79,0,0,1,.33-.55,1.76,1.76,0,0,1,.52-.37,1.75,1.75,0,0,1,1.37,0,1.51,1.51,0,0,1,.51.39,1.67,1.67,0,0,1,.29.58,2.47,2.47,0,0,1,.1.67h0A.41.41,0,0,1,32.67,80.31Zm-1.13-1a.6.6,0,0,0-.47-.19.62.62,0,0,0-.48.19,1,1,0,0,0-.24.51h1.41A.85.85,0,0,0,31.54,79.33Z"/><path d="M35.7,81.23a.86.86,0,0,1-.27.33,1.24,1.24,0,0,1-.4.19,2,2,0,0,1-.5.06,2.36,2.36,0,0,1-.72-.12,2.49,2.49,0,0,1-.7-.37l.41-.62a2.62,2.62,0,0,0,.53.3,1.61,1.61,0,0,0,.51.09.61.61,0,0,0,.3-.06.23.23,0,0,0,.09-.18v0a.18.18,0,0,0-.05-.12.49.49,0,0,0-.16-.1l-.21-.08-.26-.08a2.42,2.42,0,0,1-.35-.12,1.26,1.26,0,0,1-.32-.18,1,1,0,0,1-.23-.28.86.86,0,0,1-.09-.41h0a1,1,0,0,1,.36-.78.92.92,0,0,1,.38-.2,1.41,1.41,0,0,1,.47-.07,2.08,2.08,0,0,1,.64.1,2.46,2.46,0,0,1,.59.28l-.36.65a3.49,3.49,0,0,0-.48-.23,1.34,1.34,0,0,0-.41-.08.4.4,0,0,0-.26.07.17.17,0,0,0-.08.16h0a.13.13,0,0,0,0,.12.56.56,0,0,0,.15.1l.21.09.26.09a3,3,0,0,1,.35.13,1.29,1.29,0,0,1,.32.19.87.87,0,0,1,.23.27.75.75,0,0,1,.1.39h0A1.21,1.21,0,0,1,35.7,81.23Z"/><path d="M40.26,79.37a1,1,0,0,0-.74.28,1.24,1.24,0,0,0-.27.88v1.22h-.93v-3.3h.93v.67a1.52,1.52,0,0,1,.39-.55,1,1,0,0,1,.67-.18v1Z"/><path d="M44,80.31a.57.57,0,0,1,0,.12h-2.3a.83.83,0,0,0,.28.48.84.84,0,0,0,.53.17,1.08,1.08,0,0,0,.42-.08,1.61,1.61,0,0,0,.38-.26l.54.47a1.65,1.65,0,0,1-.57.45,1.88,1.88,0,0,1-1.47,0,1.67,1.67,0,0,1-.55-.35,1.7,1.7,0,0,1-.36-.54,1.88,1.88,0,0,1-.13-.69h0a1.85,1.85,0,0,1,.12-.67,1.64,1.64,0,0,1,.34-.55,1.68,1.68,0,0,1,1.89-.35,1.38,1.38,0,0,1,.5.39,1.68,1.68,0,0,1,.3.58,2.46,2.46,0,0,1,.09.67h0Zm-1.13-1a.62.62,0,0,0-.48-.19.61.61,0,0,0-.47.19,1,1,0,0,0-.24.51h1.41A.92.92,0,0,0,42.84,79.33Z"/><path d="M46.53,81.78h-.86l-1.3-3.33h1l.74,2.21.74-2.21h1Z"/><path d="M48.39,78.09v-.84h1v.84Zm0,3.66v-3.3h.94v3.3Z"/><path d="M53.31,80.31a.41.41,0,0,0,0,.12H51a.78.78,0,0,0,.28.48.84.84,0,0,0,.53.17,1.16,1.16,0,0,0,.42-.08,1.61,1.61,0,0,0,.38-.26l.53.47a1.53,1.53,0,0,1-.56.45,1.8,1.8,0,0,1-.79.17,1.72,1.72,0,0,1-.68-.13,1.48,1.48,0,0,1-.55-.35,1.42,1.42,0,0,1-.36-.54,1.7,1.7,0,0,1-.13-.69h0a1.85,1.85,0,0,1,.12-.67,1.79,1.79,0,0,1,.33-.55,1.76,1.76,0,0,1,.52-.37,1.77,1.77,0,0,1,1.38,0,1.47,1.47,0,0,1,.5.39,1.67,1.67,0,0,1,.29.58,2.13,2.13,0,0,1,.1.67h0Zm-1.13-1a.62.62,0,0,0-.48-.19.63.63,0,0,0-.48.19.93.93,0,0,0-.23.51H52.4A.92.92,0,0,0,52.18,79.33Z"/><path d="M57.72,81.78h-.85l-.63-2-.65,2h-.84l-1-3.33h.94l.53,2,.63-2h.8l.63,2,.54-2h.94Z"/><path d="M61.64,81.23a.86.86,0,0,1-.27.33,1.24,1.24,0,0,1-.4.19,2,2,0,0,1-.5.06,2.36,2.36,0,0,1-.72-.12,2.49,2.49,0,0,1-.7-.37l.4-.62A2.68,2.68,0,0,0,60,81a1.61,1.61,0,0,0,.51.09.55.55,0,0,0,.29-.06.21.21,0,0,0,.1-.18v0a.16.16,0,0,0-.06-.12.36.36,0,0,0-.15-.1l-.22-.08-.25-.08a2.42,2.42,0,0,1-.35-.12,1.26,1.26,0,0,1-.32-.18,1,1,0,0,1-.23-.28.86.86,0,0,1-.09-.41h0a.93.93,0,0,1,.1-.45,1,1,0,0,1,.64-.53,1.41,1.41,0,0,1,.47-.07,2.08,2.08,0,0,1,.64.1,2.46,2.46,0,0,1,.59.28l-.36.65a3.49,3.49,0,0,0-.48-.23,1.34,1.34,0,0,0-.41-.08.38.38,0,0,0-.26.07.18.18,0,0,0-.09.16h0a.14.14,0,0,0,.06.12.56.56,0,0,0,.15.1l.21.09.26.09a3,3,0,0,1,.35.13,1.29,1.29,0,0,1,.32.19.87.87,0,0,1,.23.27.75.75,0,0,1,.09.39h0A1.21,1.21,0,0,1,61.64,81.23Z"/><path class="cls-2" d="M44.25,48H28.6a1,1,0,0,1-1-1v-8.6a1,1,0,0,1,1-1H44.25a1,1,0,0,1,1,1V47A1,1,0,0,1,44.25,48Z"/><path class="cls-3" d="M46.2,35H26.71a1.45,1.45,0,0,0-1.45,1.45v12.3a1.44,1.44,0,0,0,1.45,1.44h9.08l-.23,2.19L37,52.31v6.33l2.49-2.29L42,58.64V52.38l1.37.14-.17-2.29h3a1.44,1.44,0,0,0,1.45-1.44V36.49A1.45,1.45,0,0,0,46.2,35ZM39.52,54.91l-1.43,1.31V52.43h0l1.36,1.66L41,52.35h0v3.87Zm2.7-3.58-1.1-.11-.56,0-.36.42-.73.84-.7-.86-.36-.43-.55,0-1.11.09.1-1v-.08l.06-.55-.42-.36-.09-.07-.76-.65.86-.71.43-.35,0-.55-.08-1.12,1.11.11.55.06.36-.42.73-.85.7.87.36.42.55,0,1.11-.08L42.18,47l-.06.55.42.36.85.73-.68.56-.18.15-.43.35,0,.55h0Zm4.36-2.54a.38.38,0,0,1-.38.38H44.39l.66-.54-1.81-1.56.24-2.37-2.38.18L39.59,43,38,44.84l-2.37-.23L35.84,47,34,48.49l.79.68H26.71a.38.38,0,0,1-.38-.38V36.49a.38.38,0,0,1,.38-.38H46.2a.38.38,0,0,1,.38.38Z"/><rect class="cls-3" x="28.85" y="38.14" width="15.48" height="1.43" rx="0.7"/><rect class="cls-3" x="28.85" y="40.96" width="15.48" height="1.43" rx="0.7"/><rect class="cls-3" x="28.85" y="44.1" width="5.6" height="1.43" rx="0.42"/><polygon class="cls-4" points="42.22 51.33 41.12 51.22 40.56 51.17 40.2 51.59 39.47 52.43 38.77 51.57 38.41 51.14 37.86 51.18 36.75 51.27 36.85 50.23 36.86 50.15 36.91 49.6 36.5 49.24 36.41 49.17 35.65 48.52 36.51 47.81 36.94 47.46 36.9 46.91 36.82 45.79 37.93 45.9 38.48 45.96 38.84 45.54 39.57 44.69 40.27 45.56 40.63 45.98 41.18 45.94 42.29 45.86 42.18 46.97 42.13 47.52 42.54 47.88 43.39 48.61 42.71 49.17 42.53 49.32 42.1 49.67 42.14 50.22 42.14 50.23 42.22 51.33"/></svg>