<svg id="Layer_1" data-name="Layer 1" xmlns="http://www.w3.org/2000/svg" viewBox="0 0 24 24"><defs><style>.cls-1{fill:#fff;}.cls-1{opacity:0.6;}</style></defs><path class="cls-1" d="M0,22.81a.8.8,0,0,0,.8.8H23.2a.8.8,0,0,0,.8-.8V1.19a.8.8,0,0,0-.8-.8H.8a.8.8,0,0,0-.8.8ZM1.6,2H22.4v12.9H11.48V12.06l3.07-3a.79.79,0,0,0,.23-.56.81.81,0,0,0-.23-.57l0,0,4.54-3.41a.8.8,0,1,0-1-1.28L13.39,6.73l-.16-.16a.82.82,0,0,0-1-.12l-1.6,1a3.29,3.29,0,0,0,.14-.94,3.44,3.44,0,1,0-6.87,0,3.4,3.4,0,0,0,.71,2.09A3.78,3.78,0,0,0,3.55,10.7a23,23,0,0,0-.25,4.19H1.6ZM7.36,8.3A1.84,1.84,0,1,1,9.2,6.46,1.85,1.85,0,0,1,7.36,8.3ZM5.12,11a2.68,2.68,0,0,1,.44-1.13h3.8a.81.81,0,0,0,.41-.11l2.77-1.64.31.31-2.73,2.71a.82.82,0,0,0-.24.57v3.16h-5A21.86,21.86,0,0,1,5.12,11ZM22.4,16.48V22H1.6V16.48Z"/><path class="cls-1" d="M20.85,18.36H6.47v-.25a.8.8,0,1,0-1.59,0v.25H3.15a.8.8,0,1,0,0,1.6H4.88v.24a.8.8,0,1,0,1.59,0V20H20.85a.8.8,0,1,0,0-1.6Z"/></svg>