<svg id="Layer_1" data-name="Layer 1" xmlns="http://www.w3.org/2000/svg" viewBox="0 0 24 24"><defs><style>.cls-1{fill:#fff;}</style></defs><path class="cls-1" d="M22.86,6.57,12,2.32,1.14,6.57,0,7V9l1.14.44L4,10.57v5.2l.09.11C4.18,16,6.58,19,12,19a13.1,13.1,0,0,0,5.37-1.11v.85a1.5,1.5,0,0,0-1.14,1.43,1.52,1.52,0,1,0,3,0,1.49,1.49,0,0,0-1.1-1.42V17.49a9,9,0,0,0,2.19-1.58l.11-.12v-5.4l2.4-.94L24,9V7Zm-4.4,13.59a.72.72,0,1,1-.71-.71A.71.71,0,0,1,18.46,20.16ZM12,3.05,22.12,7,17.82,8.7,12.18,5.89l-.36.71,5,2.49L12,11,1.87,7Zm0,15.14a9.75,9.75,0,0,1-7.21-2.7v-4.6L12,13.71l5.37-2.1V17A12.15,12.15,0,0,1,12,18.19Zm7.66-2.72a9.22,9.22,0,0,1-1.5,1.1V11.29l1.5-.58Zm3.2-6.87L12,12.85,1.14,8.6V7.46L12,11.72,22.86,7.46Z"/></svg>