<svg id="Layer_1" data-name="Layer 1" xmlns="http://www.w3.org/2000/svg" viewBox="0 0 24 24"><defs><style>.cls-1{fill:#fff;}</style></defs><path class="cls-1" d="M8.52,24c-.07,0-.13,0-.19,0a.33.33,0,0,1-.11-.31c0-.12,0-.23,0-.34V20.09l.15-.65a3.41,3.41,0,0,1,.81-1.27,3.83,3.83,0,0,1,1.27-.73l.65-.1h1.29l.65.05.52.13a7.44,7.44,0,0,1,.75.36l.35.28.3.29.28.36a3.31,3.31,0,0,1,.51,1.28v.1a.24.24,0,0,0,0,.22l0,.32a3.53,3.53,0,0,0,0,.65,3.42,3.42,0,0,0,0,.64,3.53,3.53,0,0,0,0,.65,4.56,4.56,0,0,0,0,.64V24H8.52Z"/><path class="cls-1" d="M4.68,13.35A2.26,2.26,0,0,1,3.26,11.7v-.15a2.68,2.68,0,0,1,0-.49A2.14,2.14,0,0,1,4,9.77l0,0a2.84,2.84,0,0,1,.7-.34,2.86,2.86,0,0,1,.58-.06,4.56,4.56,0,0,1,.64.14l.28.13a2.57,2.57,0,0,1,.84.8l.17.33a1.11,1.11,0,0,0,.09.31,3.51,3.51,0,0,1,0,.65A2.18,2.18,0,0,1,6.65,13l-.07,0a2.82,2.82,0,0,1-.64.34,3.61,3.61,0,0,1-.65.08A3.12,3.12,0,0,1,4.68,13.35Z"/><path class="cls-1" d="M2,16.87l.09-.13.48-.52.13-.11A3.46,3.46,0,0,1,4,15.5c.21,0,.41-.05.62-.06H5.94l.64.1a.19.19,0,0,0,.15,0,2.13,2.13,0,0,0,.49.21l.65.44a4.42,4.42,0,0,1,.94,1.28c.09.13,0,.22-.07.32a3.21,3.21,0,0,0-.7,1,3.64,3.64,0,0,0-.39,1.29,4.17,4.17,0,0,0,0,.61H1.82c-.22,0-.31-.09-.31-.3V18.8a3.61,3.61,0,0,1,.15-1.18,2,2,0,0,1,.27-.6Z"/><path class="cls-1" d="M16.66,11.06l.05-.26,0-.1.1-.25.07-.12a1.84,1.84,0,0,1,.5-.54c0-.07.12-.1.17-.15a3.56,3.56,0,0,1,.61-.25c.24,0,.48-.12.68.1h.05a2.22,2.22,0,0,1,.65.2,3.47,3.47,0,0,1,.61.38,1.49,1.49,0,0,1,.27.33,4,4,0,0,1,.26.65c0,.08,0,.18,0,.26v.39a3.15,3.15,0,0,1-.17.6,2.15,2.15,0,0,1-1.1,1,2.78,2.78,0,0,1-.64.12,3.59,3.59,0,0,1-.65-.07,3.23,3.23,0,0,1-.64-.33L17.47,13a2.8,2.8,0,0,1-.53-.61.05.05,0,0,0,0-.06L16.74,12l0-.05a.65.65,0,0,0,0-.2A2.84,2.84,0,0,1,16.66,11.06Z"/><path class="cls-1" d="M22.5,19.44a3.53,3.53,0,0,0,0,.65c0,.16,0,.32,0,.48s0,.14-.14.14c-.31,0-.63,0-.94,0H16.58a.35.35,0,0,1-.2-.34,2.7,2.7,0,0,0-.15-1,1.94,1.94,0,0,0-.2-.57l0,0h0a3.34,3.34,0,0,0-.74-1.05c-.06-.07-.15-.12-.15-.23s.2-.41.3-.61l.19-.27.36-.37a3.82,3.82,0,0,1,1.17-.68h.05a.08.08,0,0,0,.07,0l.06,0,.07,0h.16l.64,0h.65l.64,0,.65.12h0l.6.27a3.69,3.69,0,0,1,1.49,1.66l.13.52.11.77A3.42,3.42,0,0,0,22.5,19.44Z"/><path class="cls-1" d="M10.09,12.35a2.15,2.15,0,0,1,1-1,2.86,2.86,0,0,1,.64-.16H12a1.3,1.3,0,0,0,.42.18,2.41,2.41,0,0,1,.63.24,5.44,5.44,0,0,1,.62.45,1.14,1.14,0,0,0,.18.3A3.73,3.73,0,0,1,14,13v.06s0,0,0,0v.52a3.23,3.23,0,0,1-.25.65l-.1.16a3.7,3.7,0,0,1-.49.48L13,15a3.77,3.77,0,0,1-.64.23,4.14,4.14,0,0,1-.61,0,2.78,2.78,0,0,1-.69-.22L11,15l0,0-.07,0-.42-.38-.18-.24A2.41,2.41,0,0,1,10,13.6a3,3,0,0,1-.05-.6A3.63,3.63,0,0,1,10.09,12.35Z"/><path class="cls-1" d="M18.05,4.61a.36.36,0,0,0-.1-.14c-.11-.09-.25-.19-.36-.29s0-.15,0-.23V2.4c0-.25-.06-.33-.33-.39a.15.15,0,0,0-.12,0,.29.29,0,0,0-.21-.05,2.18,2.18,0,0,0-.63-.27,4.54,4.54,0,0,0-.65-.23s-.06,0-.12,0a2.33,2.33,0,0,0-.52-.2L14.39,1C13.93.8,13.49.63,13,.45c-.21-.07-.42-.17-.63-.23A4.31,4.31,0,0,1,12,.07a.42.42,0,0,0-.5,0,1.55,1.55,0,0,0-.38.13,6.21,6.21,0,0,0-.64.23C10,.61,9.59.76,9.17.93a13.52,13.52,0,0,0-1.31.47,5.5,5.5,0,0,0-.63.25c-.41.13-.81.27-1.22.42a.36.36,0,0,0-.21.4c0,.18.18.19.31.21a1.34,1.34,0,0,0,.46.2l.66.25a1.05,1.05,0,0,1,.34.19A3.57,3.57,0,0,1,7.63,4V7.18c0,.35,0,.35.23.44a2.45,2.45,0,0,0,.65.2.51.51,0,0,0,.18.09c.36.08.75.16,1.11.21a3.4,3.4,0,0,0,.65.08,3.55,3.55,0,0,0,.64.06,3.53,3.53,0,0,0,.65,0,3.67,3.67,0,0,0,.66,0c.21,0,.42,0,.63-.08l.35,0a7,7,0,0,0,1.23-.28l.07,0h0A.92.92,0,0,0,15,7.74c.15-.06.33-.1.48-.15a.37.37,0,0,0,.27-.35c0-.23,0-.46,0-.69V4.61c0-.41,0-.83,0-1.25,0-.1,0-.16.12-.18L16.26,3l.33-.11c.11,0,.23-.08.3,0s0,.27.06.39A3.53,3.53,0,0,0,17,4c0,.1,0,.21,0,.33a.66.66,0,0,0-.4.29.85.85,0,0,0-.27.67.78.78,0,0,0,.27.65.47.47,0,0,0,.36.23,1,1,0,0,0,1-.25.93.93,0,0,0,.33-.63A.8.8,0,0,0,18.05,4.61ZM15.12,6.93a.19.19,0,0,1-.15.23l-.65.19-.64.14c-.23,0-.44.08-.65.1a5.15,5.15,0,0,0-.65.07h-.16a1.46,1.46,0,0,0-.29,0c-.26,0-.55,0-.84,0l-.35,0h0a.23.23,0,0,1-.11,0h-.14c-.21,0-.44-.06-.65-.1l-.6-.12c-.23-.07-.44-.15-.67-.21s-.31-.15-.31-.4a1.34,1.34,0,0,0,0-.21c0-.21,0-.41,0-.6,0,0,.08,0,.1,0a.34.34,0,0,0,.19,0,3.55,3.55,0,0,0,.66.17,2.34,2.34,0,0,0,.65.12,1.76,1.76,0,0,0,.61.07c0,.06,0,.06.08.06h.27a0,0,0,0,0,.06,0h.25a1.77,1.77,0,0,0,.65,0,3.72,3.72,0,0,0,.66,0A2.7,2.7,0,0,0,13,6.36a2.32,2.32,0,0,0,.65-.1,3.67,3.67,0,0,0,.64-.14L15,6a.37.37,0,0,1,.15.39Zm0-1.67c0,.08-.11.06-.15.1-.21,0-.44.13-.65.19l-.62.13-.36.06c-.39,0-.77.1-1.16.13h-.44c-.42,0-.86,0-1.29-.07l-.63-.1c-.23-.06-.44-.09-.65-.15s-.39-.12-.58-.16-.25-.07-.33-.19l0,0v0c0-.18,0-.35,0-.52s0-.43,0-.66v-.4l0,0,0,0a1.46,1.46,0,0,0,.23.1,5.64,5.64,0,0,0,.64.25c.44.17.86.36,1.3.5a3.14,3.14,0,0,0,.64.25h0c.19.09.36.23.59.15a5.57,5.57,0,0,0,.7-.27A4.12,4.12,0,0,0,13,4.26a14.12,14.12,0,0,0,1.33-.52c.21-.06.4-.13.61-.21a.49.49,0,0,1,.15.44ZM16,2.53a1.44,1.44,0,0,0-.36.15,5,5,0,0,0-.64.25c-.44.16-.86.31-1.31.5-.21.08-.42.18-.63.25L13,3.7c-.42.16-.82.33-1.23.48A2.74,2.74,0,0,0,11.09,4a2.8,2.8,0,0,0-.64-.27,4.6,4.6,0,0,0-.65-.25,1.58,1.58,0,0,0-.38-.15c-.5-.23-1-.4-1.54-.62a.24.24,0,0,1-.1,0c-.17-.1-.38-.14-.55-.22l-.06-.05s-.06-.08,0-.14l.06,0a3,3,0,0,0,.42-.15A1.46,1.46,0,0,0,7.88,2l.63-.23c.45-.13.87-.31,1.31-.48A4,4,0,0,0,10.45,1h0s0,0,0,0l.89-.32a.36.36,0,0,1,.32,0c.42.17.85.32,1.29.46a3.56,3.56,0,0,0,.6.23s0,0,.07,0a4.16,4.16,0,0,0,.62.23,5.33,5.33,0,0,0,.63.23c.31.15.66.23,1,.36l.2.06C16.16,2.43,16.11,2.49,16,2.53Zm1.58,2.92c-.23.16-.41.16-.56,0a.22.22,0,0,0-.1-.09s0,0,0-.06a.46.46,0,0,1,.08-.37.36.36,0,0,1,.48,0l.14.12a1.72,1.72,0,0,0,.07.21A1.46,1.46,0,0,0,17.55,5.45Z"/></svg>