<svg id="Layer_1" data-name="Layer 1" xmlns="http://www.w3.org/2000/svg" viewBox="0 0 24 24"><defs><style>.cls-1{fill:#fff;}</style></defs><path class="cls-1" d="M0,24l1.68-6a12,12,0,1,1,4.48,4.39Zm6.47-3.76.37.22a10,10,0,1,0-3.2-3.13l.24.39-1,3.43Z"/><path class="cls-1" d="M8.65,6.39l-.78,0a1,1,0,0,0-.67.23A3.57,3.57,0,0,0,6,8.36a5.43,5.43,0,0,0,1.25,4.25,12.7,12.7,0,0,0,6.8,4.94,3.3,3.3,0,0,0,2.81-.35A2.49,2.49,0,0,0,18,15.61l.13-.58a.41.41,0,0,0-.23-.45l-2.63-1.21a.39.39,0,0,0-.48.12l-1,1.34a.28.28,0,0,1-.33.09A8,8,0,0,1,9,11.18a.29.29,0,0,1,0-.33l1-1.14a.39.39,0,0,0,.07-.42L9,6.64A.42.42,0,0,0,8.65,6.39Z"/></svg>