<svg id="Layer_1" data-name="Layer 1" xmlns="http://www.w3.org/2000/svg" viewBox="0 0 24 24"><defs><style>.cls-1{fill:#fff;}</style></defs><path class="cls-1" d="M16.29,8.54V2.14H8.91V.26H7.4V2.14H0V14H12.13C13.44,12.14,14.87,10.25,16.29,8.54Z"/><path class="cls-1" d="M7.37,21.38c.44-.68,1-1.61,1.78-2.7V16.53h1.47c.39-.57.81-1.15,1.23-1.75H1.27v1.75h3.1L2.58,23.2l1.73.46,1.91-7.13H7.37Z"/><path class="cls-1" d="M23.88.44A10.27,10.27,0,0,1,21,3c-1.51.79-1.15,3-1.15,3C14.34,11.32,7.05,23,7.05,23l1,.72a85,85,0,0,0,13-17.08C24.8,5.72,23.88.44,23.88.44ZM16.06,13.49l-1.33-.93.3-.4,1.32,1Zm.39-.69-1.08-.88s2.7-3.29,4.77-5.45l.34.19Z"/></svg>