<svg id="Layer_1" data-name="Layer 1" xmlns="http://www.w3.org/2000/svg" viewBox="0 0 24 24"><defs><style>.cls-1{opacity:0.8;}.cls-2{fill:#fff;}</style></defs><g class="cls-1"><path class="cls-2" d="M12,23.92H3c-.92,0-1.22-.32-1.18-1.25a9.34,9.34,0,0,1,9.35-8.94,12.22,12.22,0,0,1,5.39.73,9.3,9.3,0,0,1,5.68,8.31c.05.83-.29,1.15-1.16,1.15Zm0-1.7c2.62,0,5.24,0,7.86,0,.55,0,.64-.15.53-.63a7.67,7.67,0,0,0-4.75-5.68,10.69,10.69,0,0,0-4.52-.54,7.66,7.66,0,0,0-7.47,6.1c-.17.73-.17.73.55.73Z"/></g><g class="cls-1"><path class="cls-2" d="M12,12a5.91,5.91,0,0,1-6-6A6,6,0,1,1,18,6.08,5.91,5.91,0,0,1,12,12ZM12,1.78A4.31,4.31,0,0,0,7.72,6a4.28,4.28,0,0,0,8.56.09A4.31,4.31,0,0,0,12,1.78Z"/></g></svg>