<svg xmlns="http://www.w3.org/2000/svg" viewBox="0 0 127.81 18.91"><defs><style>.cls-1{fill:#fff;}</style></defs><g id="Layer_2" data-name="Layer 2"><g id="Layer_1-2" data-name="Layer 1"><path class="cls-1" d="M11.25.52V.63A2.77,2.77,0,0,1,8.48,3.4H3.62V8.26H9.74A2.78,2.78,0,0,1,7,11H3.62v7.63H2.77A2.77,2.77,0,0,1,0,15.89V3.3A2.78,2.78,0,0,1,2.77.52Z"/><path class="cls-1" d="M13.11,1.88a1.57,1.57,0,0,1,.16-.71A1.8,1.8,0,0,1,13.7.58a2.5,2.5,0,0,1,.65-.39,2.22,2.22,0,0,1,.79-.14,2.26,2.26,0,0,1,.79.14,2.2,2.2,0,0,1,.65.39,2,2,0,0,1,.43.59,1.71,1.71,0,0,1,.16.71,1.68,1.68,0,0,1-.16.71,1.79,1.79,0,0,1-.43.58,2.2,2.2,0,0,1-.65.39,2.06,2.06,0,0,1-.79.15,2,2,0,0,1-.79-.15,2.5,2.5,0,0,1-.65-.39,1.66,1.66,0,0,1-.43-.58A1.54,1.54,0,0,1,13.11,1.88Zm.16,5.47L15.92,6h1.13v12.7H13.27Z"/><path class="cls-1" d="M21.63,5.52,21.71,7a4.73,4.73,0,0,1,3.83-1.77q4.11,0,4.18,4.71v8.69H26.77V10.15a2.72,2.72,0,0,0-.54-1.86,2.28,2.28,0,0,0-1.77-.6A2.84,2.84,0,0,0,21.8,9.31v9.36H18.85V5.52Z"/><path class="cls-1" d="M31.18,12a7.78,7.78,0,0,1,1.41-4.87,4.52,4.52,0,0,1,3.78-1.85,4.31,4.31,0,0,1,3.38,1.46V0h3V18.67H40l-.15-1.37a4.35,4.35,0,0,1-3.53,1.61,4.49,4.49,0,0,1-3.74-1.86A8.13,8.13,0,0,1,31.18,12Zm3,.26a5.42,5.42,0,0,0,.78,3.13A2.49,2.49,0,0,0,37.1,16.5a2.79,2.79,0,0,0,2.65-1.61V9.27a2.75,2.75,0,0,0-2.63-1.58,2.53,2.53,0,0,0-2.21,1.14A6.09,6.09,0,0,0,34.13,12.25Z"/><path class="cls-1" d="M57.66.49V.73A2.64,2.64,0,0,1,55,3.37H52.65V18.63h-1A2.64,2.64,0,0,1,49,16V3.37H46.68A2.64,2.64,0,0,1,44,.73V.49Z"/><path class="cls-1" d="M61.28,18.91a6.1,6.1,0,0,1-4.55-1.77A6.39,6.39,0,0,1,55,12.43v-.36a8,8,0,0,1,.76-3.52,5.82,5.82,0,0,1,2.13-2.41,5.63,5.63,0,0,1,3.07-.87A5.18,5.18,0,0,1,65.09,7a7.28,7.28,0,0,1,1.46,4.85V13H58a3.93,3.93,0,0,0,1.09,2.57,3.26,3.26,0,0,0,2.4,1,4,4,0,0,0,3.3-1.64l1.59,1.52a5.26,5.26,0,0,1-2.1,1.83A6.67,6.67,0,0,1,61.28,18.91ZM60.92,7.64a2.51,2.51,0,0,0-2,.85,4.43,4.43,0,0,0-1,2.37h5.62v-.21a3.54,3.54,0,0,0-.79-2.25A2.48,2.48,0,0,0,60.92,7.64Z"/><path class="cls-1" d="M76.2,18.67a4.87,4.87,0,0,1-.34-1.23,5,5,0,0,1-6.68.34A3.63,3.63,0,0,1,67.92,15a3.73,3.73,0,0,1,1.57-3.22A7.55,7.55,0,0,1,74,10.63h1.81V9.77a2.3,2.3,0,0,0-.57-1.63,2.26,2.26,0,0,0-1.74-.62A2.58,2.58,0,0,0,71.8,8a1.54,1.54,0,0,0-.64,1.28h-3a3.25,3.25,0,0,1,.72-2,4.82,4.82,0,0,1,2-1.48,6.78,6.78,0,0,1,2.75-.54,5.57,5.57,0,0,1,3.69,1.16A4.2,4.2,0,0,1,78.72,9.7v5.93a6.78,6.78,0,0,0,.49,2.83v.21ZM73,16.54a3.27,3.27,0,0,0,1.64-.43A2.77,2.77,0,0,0,75.76,15V12.49H74.17a4.38,4.38,0,0,0-2.47.57,1.85,1.85,0,0,0-.82,1.62A1.72,1.72,0,0,0,71.44,16,2.18,2.18,0,0,0,73,16.54Z"/><path class="cls-1" d="M86.21,16.55a2.68,2.68,0,0,0,1.84-.64,2.22,2.22,0,0,0,.78-1.6h2.78a4.33,4.33,0,0,1-.77,2.3,5,5,0,0,1-1.94,1.68,5.84,5.84,0,0,1-2.65.62,5.59,5.59,0,0,1-4.37-1.79,7.06,7.06,0,0,1-1.62-4.93v-.31a6.94,6.94,0,0,1,1.6-4.8,5.58,5.58,0,0,1,4.38-1.81,5.4,5.4,0,0,1,3.82,1.37,4.92,4.92,0,0,1,1.55,3.59H88.83a2.76,2.76,0,0,0-.77-1.86,2.53,2.53,0,0,0-1.85-.73,2.61,2.61,0,0,0-2.21,1,5.34,5.34,0,0,0-.79,3.16v.47A5.41,5.41,0,0,0,84,15.5,2.61,2.61,0,0,0,86.21,16.55Z"/><path class="cls-1" d="M95.75,7a4.64,4.64,0,0,1,3.66-1.68c2.8,0,4.23,1.6,4.27,4.8v8.6h-3V10.18a2.55,2.55,0,0,0-.59-1.92,2.39,2.39,0,0,0-1.73-.57,2.86,2.86,0,0,0-2.65,1.58v9.4h-3V0h3Z"/><path class="cls-1" d="M111.46,18.91a6.12,6.12,0,0,1-4.56-1.77,6.43,6.43,0,0,1-1.74-4.71v-.36a7.82,7.82,0,0,1,.76-3.52,5.82,5.82,0,0,1,2.13-2.41,5.62,5.62,0,0,1,3.06-.87A5.15,5.15,0,0,1,115.26,7a7.23,7.23,0,0,1,1.47,4.85V13h-8.59a3.93,3.93,0,0,0,1.09,2.57,3.26,3.26,0,0,0,2.4,1,4,4,0,0,0,3.3-1.64l1.59,1.52a5.29,5.29,0,0,1-2.11,1.83A6.62,6.62,0,0,1,111.46,18.91ZM111.1,7.64a2.51,2.51,0,0,0-2,.85,4.35,4.35,0,0,0-1,2.37h5.62v-.21A3.6,3.6,0,0,0,113,8.4,2.48,2.48,0,0,0,111.1,7.64Z"/><path class="cls-1" d="M126.51,8.83c-.17-.14-.32-.27-.47-.37a2.4,2.4,0,0,0-.42-.26,2,2,0,0,0-.43-.14,2.53,2.53,0,0,0-.5,0,2.27,2.27,0,0,0-.77.13,2.7,2.7,0,0,0-.7.35,2.93,2.93,0,0,0-.59.52,2.58,2.58,0,0,0-.41.64v9h-3.76V7.35L121.09,6l1.13,1.21a5.4,5.4,0,0,1,1.38-1,3.47,3.47,0,0,1,1.6-.39,3.24,3.24,0,0,1,1.47.33,6.23,6.23,0,0,1,1.14.74Z"/></g></g></svg>