<svg id="Layer_1" data-name="Layer 1" xmlns="http://www.w3.org/2000/svg" viewBox="0 0 24 24"><defs><style>.cls-1{fill:#fff;}</style></defs><path class="cls-1" d="M21.49,2.87h-19V15.64H14.35v.74H2.28c-.4,0-.51-.12-.51-.52V2.92A5.66,5.66,0,0,1,1,2.7,1.25,1.25,0,0,1,.34,1.32a1.29,1.29,0,0,1,1.2-1H22.32a1.3,1.3,0,0,1,1.29.85,1.28,1.28,0,0,1-1.16,1.71h-.21V14.55h0c-.07-.1-.13-.21-.21-.31a2.45,2.45,0,0,1-.52-1.72c0-3.13,0-6.26,0-9.39ZM12,1H1.8a1.51,1.51,0,0,0-.3,0,.53.53,0,0,0-.45.49c0,.37.24.59.69.59H22.26a.74.74,0,0,0,.21,0,.55.55,0,0,0,.47-.37.49.49,0,0,0-.19-.58A1.05,1.05,0,0,0,22.26,1Z"/><path class="cls-1" d="M20.88,18a1,1,0,0,0-.22.7c-.14,1.37-.29,2.73-.43,4.1l0,.16c-.14.56-.22.83-1,.77-.2,0-.42,0-.62-.05a.6.6,0,0,1-.46-.51A3.79,3.79,0,0,0,18,22.6l-.09.5a.7.7,0,0,1-.71.59h-.65a.54.54,0,0,1-.61-.42,5.26,5.26,0,0,1-.19-1c-.14-1.34-.27-2.67-.4-4a.29.29,0,0,0,0-.14.88.88,0,0,1-.2-.66c0-.67,0-1.34,0-2v-.23h-.56a1.1,1.1,0,0,1-1.09-.9c-.24-.94-.48-1.87-.76-2.8a1.1,1.1,0,0,1,.77-1.36,1.08,1.08,0,0,1,1.29.84c.18.63.39,1.24.6,1.87a.22.22,0,0,0,.39,0,2.9,2.9,0,0,1,4.43-.16,6.85,6.85,0,0,1,.51.77l.9,1.42c.32.51.66,1,1,1.52a1.07,1.07,0,0,1,0,1.19,1,1,0,0,1-1,.49A3.94,3.94,0,0,1,20.88,18Zm-.67-.31c0-1,.05-2.08,0-3.1a2.14,2.14,0,0,0-2.54-2,2,2,0,0,0-1,.5l.33,0a2.58,2.58,0,0,1,.29,0,.33.33,0,0,1,.32.37.34.34,0,0,1-.36.34,1.43,1.43,0,0,1-.29,0l-1.65-.1c-.36,0-.43-.07-.55-.42L14,11.16a.33.33,0,0,0-.37-.25.37.37,0,0,0-.27.4.32.32,0,0,0,0,.09l.75,2.83c.05.2.16.28.39.28l2,0,.24,0a.34.34,0,0,1,.26.36.34.34,0,0,1-.29.33h-.9v2.37Zm-4.12.76c.18,1.53.26,3.05.47,4.55h.63c.14-.88.27-1.74.41-2.6,0-.28.17-.44.38-.44s.34.15.4.43l.39,2.17c.08.46.08.46.55.44h0a.86.86,0,0,0,.14-.13.53.53,0,0,0,0-.19l.39-3.73c0-.17,0-.33,0-.5Zm4.92-3-.05,0v1.25a.28.28,0,0,0,.06.15l.31.45a.37.37,0,0,0,.47.12.37.37,0,0,0,.15-.48C21.64,16.41,21.32,15.91,21,15.41Z"/><path class="cls-1" d="M5.37,8.1a.88.88,0,0,1,0-.29.44.44,0,0,0-.08-.53c-.24-.33-.48-.67-.69-1a.34.34,0,0,0-.35-.18,1.09,1.09,0,0,1-.66-2,1.07,1.07,0,0,1,1.31,0,1,1,0,0,1,.32,1.27.47.47,0,0,0,0,.56c.23.3.44.62.65.94.07.1.14.16.27.12a.44.44,0,0,1,.25,0c.28.08.44-.06.61-.25s.32-.31.46-.48a.29.29,0,0,0,.06-.24,1.09,1.09,0,1,1,2.13-.44c0,.12,0,.26,0,.39a.51.51,0,0,0,.07.24c0,.06.08.1.13.15.24.28.23.27.57.15a1,1,0,0,1,.84,0,.31.31,0,0,0,.4,0l1.62-1.31A.29.29,0,0,0,13.42,5a1.1,1.1,0,0,1,2.08-.63,1.11,1.11,0,0,1-.21,1.2,1.07,1.07,0,0,1-1.18.25.35.35,0,0,0-.41,0L12.05,7.21a.36.36,0,0,0-.11.24,1.1,1.1,0,0,1-2.16.36.41.41,0,0,1,0-.15c.09-.48-.34-.64-.57-.91,0,0-.1,0-.14,0a1.13,1.13,0,0,1-.77,0,.2.2,0,0,0-.18,0c-.21.19-.4.4-.6.59a.22.22,0,0,0,0,.27,1.08,1.08,0,0,1-.82,1.53A1.09,1.09,0,0,1,5.37,8.1Zm5.47-.2a.34.34,0,0,0,.36-.35.36.36,0,0,0-.36-.36.39.39,0,0,0-.36.35A.36.36,0,0,0,10.84,7.9Zm-4,.19a.34.34,0,0,0-.34-.35.37.37,0,0,0-.37.36.35.35,0,0,0,.36.35A.33.33,0,0,0,6.81,8.09ZM4.27,5.35A.35.35,0,0,0,4.62,5a.36.36,0,0,0-.36-.38A.39.39,0,0,0,3.91,5,.36.36,0,0,0,4.27,5.35ZM9,5.73a.32.32,0,0,0-.35-.35.35.35,0,0,0-.36.35.39.39,0,0,0,.35.36A.36.36,0,0,0,9,5.73Zm5.5-.57a.33.33,0,0,0,.35-.34.37.37,0,0,0-.35-.37.38.38,0,0,0-.36.35A.35.35,0,0,0,14.5,5.16Z"/><path class="cls-1" d="M20.07,8A11.8,11.8,0,0,1,20,9.43a2,2,0,0,1-2.31,1.62A2,2,0,0,1,16,8.83a6.74,6.74,0,0,0,0-1.27.58.58,0,0,1,.2-.5,2.64,2.64,0,0,1,2.9-.43l.36.2A1,1,0,0,1,20.07,8ZM16.8,8.7a1.26,1.26,0,0,0,.45,1.37,1.27,1.27,0,0,0,2.05-.9,1.47,1.47,0,0,1-1.71-.42.22.22,0,0,0-.11-.05Zm1.3-1.6a2,2,0,0,0-1.24.38.29.29,0,0,0-.08.35A.25.25,0,0,0,17,8a1.82,1.82,0,0,0,.52,0,.49.49,0,0,1,.52.2,1.2,1.2,0,0,0,.28.27.71.71,0,0,0,.79,0c.27-.13.26-.37.24-.6a.5.5,0,0,0-.09-.29A2,2,0,0,0,18.1,7.1Z"/><path class="cls-1" d="M7.72,10.54h-4a.58.58,0,0,1-.38-.15.36.36,0,0,1,.21-.57h8.32a.37.37,0,0,1,.4.38.36.36,0,0,1-.41.36Z"/><path class="cls-1" d="M7.71,12H3.54a.36.36,0,0,1,0-.71,1.06,1.06,0,0,1,.25,0h8a1.06,1.06,0,0,1,.25,0,.35.35,0,0,1,.28.37.36.36,0,0,1-.3.34H7.71Z"/><path class="cls-1" d="M7.73,13.46H3.54a.36.36,0,0,1-.31-.35.36.36,0,0,1,.3-.36H12a.34.34,0,0,1,.29.36.35.35,0,0,1-.3.35H7.73Z"/><path class="cls-1" d="M7.73,14.92H3.54a.36.36,0,0,1-.31-.35.36.36,0,0,1,.3-.36h8.26a.82.82,0,0,1,.22,0,.37.37,0,0,1,.23.39.34.34,0,0,1-.31.31H7.73Z"/></svg>