<svg id="Layer_1" data-name="Layer 1" xmlns="http://www.w3.org/2000/svg" viewBox="0 0 24 24"><defs><style>.cls-1{opacity:0.8;}.cls-2{fill:#fff;}</style></defs><g class="cls-1"><path class="cls-2" d="M12,24A12,12,0,1,1,24,12,12,12,0,0,1,12,24ZM12,2.39A9.61,9.61,0,1,0,21.61,12,9.63,9.63,0,0,0,12,2.39Z"/><path class="cls-2" d="M10.8,8.85V7.3a1.2,1.2,0,1,1,2.4,0c0,1.07,0,2.14,0,3.21,0,.27.09.31.33.31h3.32A1.18,1.18,0,0,1,18,11.9a1.2,1.2,0,0,1-.87,1.25,1.38,1.38,0,0,1-.45,0H13.5c-.23,0-.32,0-.31.3,0,1.11,0,2.21,0,3.32a1.13,1.13,0,0,1-.63,1.05,1.15,1.15,0,0,1-1.2-.05,1.18,1.18,0,0,1-.56-1.07c0-1.08,0-2.16,0-3.24,0-.23,0-.32-.3-.31-1.12,0-2.23,0-3.35,0A1.18,1.18,0,0,1,6,12.1a1.2,1.2,0,0,1,.87-1.25,1.38,1.38,0,0,1,.45,0h3.2c.22,0,.3,0,.29-.27C10.79,10,10.8,9.41,10.8,8.85Z"/></g></svg>