<svg id="Layer_1" data-name="Layer 1" xmlns="http://www.w3.org/2000/svg" viewBox="0 0 24 24"><defs><style>.cls-1{opacity:0.8;}.cls-2{fill:#fff;}</style></defs><g class="cls-1"><path class="cls-2" d="M11.46,3.94a6.47,6.47,0,0,1,6.32,4.57,6.35,6.35,0,0,1-.56,5.14.32.32,0,0,0,.07.48l6.23,6.23a1.54,1.54,0,0,1,.46.81.62.62,0,0,1-.16.6c-.29.3-.59.59-.89.89a.57.57,0,0,1-.66.15,2.35,2.35,0,0,1-.72-.42c-1.79-1.77-3.56-3.55-5.34-5.32-.33-.33-.66-.66-1-1-.13-.13-.22-.12-.37,0a6.16,6.16,0,0,1-3.34.89A6.49,6.49,0,0,1,5.11,11a6.5,6.5,0,0,1,3.6-6.42A6.08,6.08,0,0,1,11.46,3.94Zm.11,11A4.56,4.56,0,1,0,7,10.42,4.56,4.56,0,0,0,11.57,15Z"/><path class="cls-2" d="M16.39,4.88l-.22-.16A7.33,7.33,0,0,0,5.48,6.39a.39.39,0,0,1-.38.2H.74C.2,6.59,0,6.39,0,5.85v-4c0-.51.19-.7.72-.7h15c.52,0,.71.19.71.7V4.67C16.4,4.73,16.39,4.78,16.39,4.88Z"/><path class="cls-2" d="M14.94,16.93c.46.46.92.91,1.36,1.37a.43.43,0,0,1,.1.24c0,.16,0,.32,0,.48,0,.51-.19.71-.71.71H.8c-.63,0-.8-.16-.8-.8V15c0-.48.2-.69.68-.69H5.14a.39.39,0,0,1,.36.21,7,7,0,0,0,5.22,3.18A7,7,0,0,0,14.94,16.93Z"/><path class="cls-2" d="M4.75,7.72a7.43,7.43,0,0,0,0,5.43H.67c-.46,0-.67-.2-.67-.67V8.4a.6.6,0,0,1,.69-.69H4.75Z"/><path class="cls-2" d="M11.57,13.15H9.21A.57.57,0,0,1,8.85,13a3.7,3.7,0,0,1,0-5.13.5.5,0,0,1,.34-.15h4.73a.46.46,0,0,1,.33.12A3.66,3.66,0,0,1,14.31,13a.48.48,0,0,1-.39.17Z"/></g></svg>