<svg id="Layer_1" data-name="Layer 1" xmlns="http://www.w3.org/2000/svg" viewBox="0 0 24 24"><defs><style>.cls-1{opacity:0.8;}.cls-2{fill:#fff;}</style></defs><g class="cls-1"><path class="cls-2" d="M23.33,3a1.33,1.33,0,0,1-.34.68c-.4.49-.79,1-1.19,1.45L20.56,6.6c-.63.73-1.25,1.47-1.87,2.21l-3.33,3.9a.62.62,0,0,0-.19.59A3.19,3.19,0,0,1,12,16.91a3.22,3.22,0,1,1,.05-6.43h0a1.14,1.14,0,0,0,1.18-.39c2-1.72,4-3.43,6-5.1.47-.41,1-.81,1.44-1.21l1.25-1a1.52,1.52,0,0,1,.68-.38A.53.53,0,0,1,23.33,3Z"/><path class="cls-2" d="M12.91,4.44a.92.92,0,1,0-.92.94A.92.92,0,0,0,12.91,4.44Z"/><path class="cls-2" d="M8.29,4.46a.92.92,0,1,0,0,1.84.92.92,0,1,0,0-1.84Z"/><path class="cls-2" d="M6.45,8.16a.93.93,0,0,0-.9-.93.92.92,0,1,0,0,1.84A.94.94,0,0,0,6.45,8.16Z"/><path class="cls-2" d="M4.59,10.92a.93.93,0,0,0,0,1.85.93.93,0,1,0,0-1.85Z"/><path class="cls-2" d="M16.61,5.37a.93.93,0,0,0-.92-.91.92.92,0,0,0-.93.93.93.93,0,0,0,.92.91A.94.94,0,0,0,16.61,5.37Z"/><path class="cls-2" d="M18.46,11.85a.92.92,0,1,0,.92-.93A.93.93,0,0,0,18.46,11.85Z"/><path class="cls-2" d="M22.83,6.84c-.44.57-.88,1.14-1.3,1.7A10.14,10.14,0,1,1,12,1.87a10.09,10.09,0,0,1,5.78,1.81c.49-.4,1-.79,1.53-1.19A12,12,0,0,0,0,12a12.19,12.19,0,0,0,.25,2.42c0,.1,0,.21.06.32s.13.52.21.75A12,12,0,0,0,24,13c0-.33,0-.65,0-1A11.88,11.88,0,0,0,22.83,6.84Z"/></g></svg>