<svg id="Layer_1" data-name="Layer 1" xmlns="http://www.w3.org/2000/svg" viewBox="0 0 24 24"><defs><style>.cls-1{fill:#fff;}</style></defs><path class="cls-1" d="M14.91,3c0,1.61-1.3,6.66-2.91,6.66S9.09,4.59,9.09,3a2.91,2.91,0,1,1,5.82,0Z"/><path class="cls-1" d="M5.64,5C7,5.77,10.76,9.43,10,10.82s-5.84,0-7.23-.81A2.91,2.91,0,1,1,5.64,5Z"/><path class="cls-1" d="M2.73,14c1.39-.81,6.42-2.2,7.23-.81S7,18.23,5.64,19a2.91,2.91,0,1,1-2.91-5Z"/><path class="cls-1" d="M9.09,21c0-1.61,1.3-6.66,2.91-6.66s2.91,5.05,2.91,6.66a2.91,2.91,0,1,1-5.82,0Z"/><path class="cls-1" d="M18.36,19c-1.4-.81-5.12-4.47-4.32-5.86s5.84,0,7.23.81a2.91,2.91,0,1,1-2.91,5Z"/><path class="cls-1" d="M21.27,10c-1.39.81-6.42,2.2-7.23.81S17,5.77,18.36,5A2.91,2.91,0,1,1,21.27,10Z"/></svg>