<svg id="Layer_1" data-name="Layer 1" xmlns="http://www.w3.org/2000/svg" viewBox="0 0 24 24"><defs><style>.cls-1{fill:#fff;}</style></defs><path class="cls-1" d="M11.22.08,10.75,1.3,11.9,3.4H15l1.35-2.17L15.83.08A41.67,41.67,0,0,0,11.22.08Z"/><path class="cls-1" d="M15.15,4.28H11.9L8.71,19.46,13.59,24l4.88-4.47ZM12.43,7.67l2-1.21.18.83L12.2,8.75ZM11.53,12,15.1,9.75l.18.83L11.3,13Zm-1,4.76,5.37-3.31.18.82L10.3,17.79Zm1.25,4-.61-.56,5.46-3.37.18.82Z"/><polygon class="cls-1" points="10.81 5.16 5.66 11.6 5.53 15.12 8.92 14.51 10.81 5.16"/></svg>