<svg id="Layer_1" data-name="Layer 1" xmlns="http://www.w3.org/2000/svg" viewBox="0 0 24 24"><defs><style>.cls-1{fill:#fff;}</style></defs><path class="cls-1" d="M11.18,9.77c-.21-.54-.38-1-.51-1.3a5.27,5.27,0,0,0-.49-.91,2.35,2.35,0,0,0-.77-.7,2.41,2.41,0,0,0-1.19-.27A2.37,2.37,0,0,0,7,6.86a2.28,2.28,0,0,0-.77.71,5.8,5.8,0,0,0-.55,1.09L5.28,9.8,1,20.73c-.17.43-.3.77-.38,1a2.56,2.56,0,0,0-.11.71A1.43,1.43,0,0,0,1,23.53,1.62,1.62,0,0,0,2.11,24a1.29,1.29,0,0,0,1.09-.44A7.74,7.74,0,0,0,4,21.85l.81-2.16h6.84l.8,2.12.39.9a3.82,3.82,0,0,0,.42.76,1.53,1.53,0,0,0,.48.39,1.7,1.7,0,0,0,1.87-.35,1.49,1.49,0,0,0,.48-1.07,5.43,5.43,0,0,0-.51-1.8ZM5.7,17.13l2.49-6.94,2.54,6.94Z"/><path class="cls-1" d="M23.26,9A5.56,5.56,0,0,1,23,7.4c0-.55,0-1.05,0-1.5s0-1,0-1.65a6,6,0,0,0-.43-2.46A2.7,2.7,0,0,0,21.13.43,7.61,7.61,0,0,0,18.27,0a7.41,7.41,0,0,0-2.72.44A3.71,3.71,0,0,0,14,1.58,2.26,2.26,0,0,0,13.43,3a1,1,0,0,0,.34.76,1.17,1.17,0,0,0,.8.3.88.88,0,0,0,.68-.19,9.27,9.27,0,0,0,.53-.77,2.63,2.63,0,0,1,.91-.88,3.42,3.42,0,0,1,1.58-.29,2,2,0,0,1,1.61.51A2.83,2.83,0,0,1,20.32,4c-.58.17-1.12.31-1.61.43s-1.09.25-1.78.39l-1.31.27a3.55,3.55,0,0,0-2,1.07,2.78,2.78,0,0,0-.72,1.93,2.9,2.9,0,0,0,.43,1.55,3,3,0,0,0,1.24,1.14,4,4,0,0,0,1.86.42,5.38,5.38,0,0,0,2.1-.39A8.43,8.43,0,0,0,20.5,9.67a5.87,5.87,0,0,0,.88,1.16,1.22,1.22,0,0,0,.84.4,1.32,1.32,0,0,0,.9-.35,1,1,0,0,0,.4-.77A4.8,4.8,0,0,0,23.26,9ZM20.32,6.08A4.21,4.21,0,0,1,20,8.14a2.42,2.42,0,0,1-1,.92,3.21,3.21,0,0,1-1.51.36A1.73,1.73,0,0,1,16.18,9a1.38,1.38,0,0,1-.47-1.06,1.17,1.17,0,0,1,.4-1A2.26,2.26,0,0,1,17,6.52c.29-.08.83-.2,1.6-.36a16.28,16.28,0,0,0,1.76-.47Z"/></svg>