<svg id="Layer_1" data-name="Layer 1" xmlns="http://www.w3.org/2000/svg" viewBox="0 0 24 24"><defs><style>.cls-1{opacity:0.6;}.cls-2{fill:#fff;}</style></defs><g class="cls-1"><path class="cls-2" d="M9.23,2.9a3.36,3.36,0,0,1,1.49.33,3.66,3.66,0,0,1,1,.71,3.48,3.48,0,0,1,0,4.84,3.71,3.71,0,0,1-1,.73,3.36,3.36,0,0,1-1.49.33,3.47,3.47,0,0,1,0-6.94m0-1.39a4.86,4.86,0,0,0,0,9.72,4.72,4.72,0,0,0,2.1-.47,5,5,0,0,0,1.38-1,4.88,4.88,0,0,0,0-6.8,5,5,0,0,0-1.38-1,4.72,4.72,0,0,0-2.1-.47Z"/><path class="cls-2" d="M21.06,6.37a4.85,4.85,0,0,1-4.86,4.86,4.7,4.7,0,0,1-2.08-.47,5.2,5.2,0,0,0,1.38-1,4,4,0,0,0,.7.07,3.47,3.47,0,1,0,0-6.94,4,4,0,0,0-.7.07,5.2,5.2,0,0,0-1.38-1,4.7,4.7,0,0,1,2.08-.47A4.85,4.85,0,0,1,21.06,6.37Z"/><path class="cls-2" d="M18.29,22.49h-1.4V19.68a5,5,0,0,0-5-4.95H6.35a5,5,0,0,0-5,4.95v2.81H0V19.68a6.36,6.36,0,0,1,6.35-6.35h5.59a6.36,6.36,0,0,1,6.35,6.35Z"/><path class="cls-2" d="M16.6,13.34h1.06A6.34,6.34,0,0,1,24,19.68v2.81H22.61V19.68a5,5,0,0,0-4.95-4.95Z"/></g></svg>