<svg id="Layer_1" data-name="Layer 1" xmlns="http://www.w3.org/2000/svg" viewBox="0 0 24 24"><defs><style>.cls-1{opacity:0.6;}.cls-2{fill:#fff;}</style></defs><g class="cls-1"><path class="cls-2" d="M12,1c3.67.2,6.22,1.76,7.78,4.77a7.93,7.93,0,0,1-.66,9,16.13,16.13,0,0,1-3.61,3.43,8.83,8.83,0,0,0-3.42,4.33l-.06.1a.45.45,0,0,1-.1-.13,9.11,9.11,0,0,0-3.43-4.32,16.35,16.35,0,0,1-3.61-3.42,7.93,7.93,0,0,1-.64-9A8.57,8.57,0,0,1,12,1M9.6,11a6.36,6.36,0,0,1-1,.43l-.23.09A3.13,3.13,0,0,0,6,14.08l-.13,1.13H18.42L18.08,14a3.61,3.61,0,0,0-2.69-2.54L15,11.27a3,3,0,0,1-.68-.34,2.78,2.78,0,0,1,.32-.59,6.78,6.78,0,0,0,1-4.38,3.9,3.9,0,0,0-3.71-3.38h-.05A3.3,3.3,0,0,0,8.43,5.8a9.69,9.69,0,0,0,.73,4A10,10,0,0,1,9.6,11M12,0A9.64,9.64,0,0,0,3.35,5.28a9,9,0,0,0,.72,10A17.53,17.53,0,0,0,7.91,19,7.93,7.93,0,0,1,11,22.81c.17.47.71.81,1.08,1.2.33-.39.8-.73,1-1.18A7.91,7.91,0,0,1,16.08,19a17,17,0,0,0,3.84-3.64,9,9,0,0,0,.74-10A9.62,9.62,0,0,0,12,0ZM7,14.21c.16-1.28,1.16-1.53,2-1.88,1.94-.76,1.92-1,1.07-2.89a8.76,8.76,0,0,1-.64-3.63,2.32,2.32,0,0,1,2.44-2.23h0A2.92,2.92,0,0,1,14.63,6a5.78,5.78,0,0,1-.81,3.76c-.88,1.31-.63,1.85.82,2.42,1,.39,2.1.59,2.48,2Z"/></g></svg>