<svg id="Layer_1" data-name="Layer 1" xmlns="http://www.w3.org/2000/svg" viewBox="0 0 24 24"><defs><style>.cls-1{fill:#fff;opacity:0.5;}</style></defs><path class="cls-1" d="M17,1.12a6.87,6.87,0,0,0-3.18.76A7,7,0,0,0,12,3.22a7,7,0,0,0-1.82-1.34A6.87,6.87,0,0,0,7,1.12a7,7,0,0,0-7,7c0,2.73,1.44,5.64,4.29,8.63a40.85,40.85,0,0,0,7.31,5.88l.4.26.4-.26a40.85,40.85,0,0,0,7.31-5.88c2.85-3,4.29-5.9,4.29-8.63A7,7,0,0,0,17,1.12Zm1.64,14.59A39.31,39.31,0,0,1,12,21.11a39.31,39.31,0,0,1-6.64-5.4C2.79,13,1.48,10.45,1.48,8.11A5.52,5.52,0,0,1,7,2.6a5.46,5.46,0,0,1,4.41,2.21L12,5.6l.59-.79A5.46,5.46,0,0,1,17,2.6a5.52,5.52,0,0,1,5.52,5.51C22.52,10.45,21.21,13,18.64,15.71Z"/></svg>